<svg xmlns="http://www.w3.org/2000/svg" viewBox="0 0 25.31 23.61"><defs><style>.cls-1{fill:#0076c7;}</style></defs><title>Asset 1</title><g id="Layer_2" data-name="Layer 2"><g id="contents"><path class="cls-1" d="M11.81,23.61H5.51a5.31,5.31,0,0,1-3.17-.95A5.08,5.08,0,0,1,0,18.38C0,14.21,0,10,0,5.87c0-.41,0-.83,0-1.25A5,5,0,0,1,1.13,2.09,5.34,5.34,0,0,1,3.43.38,4.86,4.86,0,0,1,5.24,0H17.56l.34,0c.17,0,.26.07.25.24,0,.47,0,.93,0,1.39,0,.23-.05.27-.27.26H6.94c-.6,0-1.22,0-1.82,0A3.4,3.4,0,0,0,2.6,3.25a3.48,3.48,0,0,0-.75,2.3v12.6a3.5,3.5,0,0,0,1.72,3.08,3.28,3.28,0,0,0,1.83.52H15.52c.91,0,1.82,0,2.72,0a3.45,3.45,0,0,0,2.51-1.12,3.77,3.77,0,0,0,1-2.7c0-1,0-2,0-3s0-2.14,0-3.22c0-.3,0-.61,0-.91a.42.42,0,0,1,.19-.37l1-.71c.15-.11.28-.24.43-.34a.76.76,0,0,1,.2-.06.8.8,0,0,1,.05.21c0,.35,0,.71,0,1.07,0,2,0,3.93,0,5.9,0,.59,0,1.19,0,1.78a5.37,5.37,0,0,1-1.29,3.46,5.27,5.27,0,0,1-2.08,1.51,4.81,4.81,0,0,1-1.87.38H11.81Z"/><path class="cls-1" d="M7.25,9.05l.18.12,2.28,2.31L11.21,13c.12.11.17.11.32,0l1.19-1.2L15.53,9c.9-.9,1.79-1.82,2.69-2.73L20.46,4c.78-.79,1.55-1.59,2.32-2.38.22-.22.23-.21.44,0l1.21,1.21.8.77a.22.22,0,0,1,0,.34L23.4,5.72c-.47.46-.92,1-1.38,1.42s-1,1-1.52,1.52-1,1-1.46,1.46-1.15,1.13-1.71,1.7-.86.9-1.29,1.34l-1.39,1.37L13,16.25,11.5,17.73c-.11.12-.17.11-.28,0l-1.09-1.09-.87-.89c-.25-.23-.5-.46-.74-.7s-.65-.67-1-1l-.87-.86-1.41-1.4L5,11.53a.18.18,0,0,1,0-.29l1.5-1.47c.2-.2.38-.41.57-.62C7.14,9.11,7.2,9.09,7.25,9.05Z"/></g></g></svg>