<svg xmlns="http://www.w3.org/2000/svg" viewBox="0 0 22.78 22.78"><defs><style>.cls-1{fill:#191919;}</style></defs><title>Asset 1</title><g id="Layer_2" data-name="Layer 2"><g id="contents"><path class="cls-1" d="M0,2.66C0,2.45,0,2.24,0,2a1,1,0,0,1,.75-.92C2.34.74,3.91.37,5.47,0A1.08,1.08,0,0,1,6.7.73c.36.89.75,1.78,1.13,2.66.31.72.62,1.44.92,2.16A1,1,0,0,1,8.4,6.89c-.81.66-1.61,1.33-2.42,2a.31.31,0,0,0-.1.46A16.85,16.85,0,0,0,8,12.6a16.46,16.46,0,0,0,4.66,3.89c.29.15.58.29.86.45a.23.23,0,0,0,.35-.08c.67-.84,1.36-1.67,2-2.5A1,1,0,0,1,17.21,14c.93.38,1.85.79,2.78,1.18.68.29,1.36.59,2,.87a1.1,1.1,0,0,1,.71,1.38c-.34,1.46-.68,2.93-1,4.39a1.06,1.06,0,0,1-1.19.93A20.43,20.43,0,0,1,9.62,19.56a20.51,20.51,0,0,1-7.94-9.31A19,19,0,0,1,.19,4.71C.12,4,.06,3.34,0,2.66Z"/></g></g></svg>