<svg xmlns="http://www.w3.org/2000/svg" viewBox="0 0 40.94 40.92"><defs><style>.cls-1{fill:#1133ae;}</style></defs><title>Asset 4</title><g id="Layer_2" data-name="Layer 2"><g id="contents"><path class="cls-1" d="M20.49,0A20.46,20.46,0,1,1,0,20.54,20.38,20.38,0,0,1,20.49,0ZM33.85,19.46h3.4c-.36-9.09-8.39-15.73-15.77-15.72v.58c0,.69,0,1.37,0,2.05a3.16,3.16,0,0,1-.11.75.88.88,0,0,1-.78.63.85.85,0,0,1-.91-.42,1.44,1.44,0,0,1-.16-.72c0-.81,0-1.62,0-2.43,0-.17-.05-.33-.07-.49C10.73,4,3.8,11.71,3.73,19.45l.67,0c.71,0,1.42,0,2.13,0s1,.14,1.27,1c-.26.8-.48,1-1.3,1H3.7A16.7,16.7,0,0,0,19.49,37.21l0-3.42a1,1,0,0,1,1.24-.59,1,1,0,0,1,.7,1.06c0,.69,0,1.37,0,2.06v.88C30,37,37.15,29.33,37.21,21.45H35.93c-.59,0-1.17,0-1.75,0a1,1,0,0,1-.92-.57.93.93,0,0,1,.16-1.06A4.12,4.12,0,0,1,33.85,19.46Z"/><path class="cls-1" d="M19.6,18.35h1.67l5.14-3.47,4.14-2.81a1.68,1.68,0,0,1,1-.38,1.25,1.25,0,0,1,.92,2.12,3.41,3.41,0,0,1-.6.46l-8.56,5.79-.6.42c-.29,1.27-.91,2.08-2.23,2.09-1.13,0-1.77-.59-2.21-2.05l-4.42-2.89c-.23-.16-.48-.3-.69-.48a1.26,1.26,0,0,1,1.37-2.09,5.73,5.73,0,0,1,.59.35Z"/></g></g></svg>