<svg xmlns="http://www.w3.org/2000/svg" viewBox="0 0 35.99 28.82"><defs><style>.cls-1{fill:#fff;}</style></defs><title>Asset 2</title><g id="Layer_2" data-name="Layer 2"><g id="contents"><path class="cls-1" d="M2.31,26.48H6.62l.53,2.26c-1.88,0-3.65.11-5.39,0A2.1,2.1,0,0,1,0,26.13c.22-2.08.5-4.15.76-6.23Q1.91,11.08,3,2.26C3.22.66,3.9,0,5.5,0H27.63A2.3,2.3,0,0,1,30.3,2.12q2.77,11.72,5.54,23.42.78,3.29-2.59,3.28H11.74c-1.68,0-2.35-.53-2.73-2.15Q7,18.24,5,9.8c-.07-.31-.17-.62-.25-.93H4.53C3.79,14.7,3.06,20.53,2.31,26.48ZM28,2.44H5.67l5.67,24H33.66C31.75,18.35,29.87,10.39,28,2.44Z"/><path class="cls-1" d="M13.47,15.18l1.73-1.52,2.69,3.09c1.39,1.6,1.46,1.59,2.3-.36,1.09-2.51,2.17-5,3.25-7.54.14-.33.29-.64.48-1.07L26,8.67c-.07.23-.1.4-.16.56-1.28,3-2.55,5.95-3.85,8.92a3,3,0,0,1-5.24.8Z"/></g></g></svg>