<svg xmlns="http://www.w3.org/2000/svg" viewBox="0 0 37.31 45.71"><defs><style>.cls-1{fill:#fff;}.cls-2{fill:none;stroke:#fff;stroke-linecap:round;stroke-linejoin:round;stroke-width:1.95px;}</style></defs><title>Asset 1</title><g id="Layer_2" data-name="Layer 2"><g id="contents"><path class="cls-1" d="M32,42.13H1.69A1.69,1.69,0,0,1,0,40.45V1.69A1.69,1.69,0,0,1,1.69,0H32a1.69,1.69,0,0,1,1.69,1.69V40.45A1.69,1.69,0,0,1,32,42.13ZM1.69,1.69V40.45H32V1.69Z"/><path class="cls-1" d="M25.47,9.43H8.23a.85.85,0,0,1,0-1.69H25.47a.85.85,0,1,1,0,1.69Z"/><path class="cls-1" d="M25.47,17.75H8.23a.85.85,0,0,1,0-1.69H25.47a.85.85,0,1,1,0,1.69Z"/><path class="cls-1" d="M25.47,26.07H8.23a.84.84,0,0,1,0-1.68H25.47a.84.84,0,1,1,0,1.68Z"/><path class="cls-1" d="M25.47,34.39H8.23a.84.84,0,1,1,0-1.68H25.47a.84.84,0,1,1,0,1.68Z"/><path class="cls-2" d="M36.33,4.57V42.44A2.3,2.3,0,0,1,34,44.73H5.49"/></g></g></svg>