<svg xmlns="http://www.w3.org/2000/svg" viewBox="0 0 40.51 40.51"><defs><style>.cls-1{fill:#1133ae;}</style></defs><title>Asset 3</title><g id="Layer_2" data-name="Layer 2"><g id="contents"><path class="cls-1" d="M20.25,40.51A20.26,20.26,0,1,1,40.51,20.25,20.28,20.28,0,0,1,20.25,40.51ZM20.25,3A17.26,17.26,0,1,0,37.51,20.25,17.27,17.27,0,0,0,20.25,3Z"/><path class="cls-1" d="M19.43,40.27c-6.1-4.15-9.9-11.82-9.9-20s3.84-16,10-20.1l1.67,2.5c-5.37,3.58-8.7,10.33-8.7,17.6s3.29,13.94,8.59,17.54Z"/><path class="cls-1" d="M21.48,40.27l-1.69-2.48c5.3-3.6,8.59-10.32,8.59-17.54s-3.33-14-8.7-17.6L21.35.15c6.19,4.14,10,11.84,10,20.1S27.59,36.12,21.48,40.27Z"/><path class="cls-1" d="M20.3,12.07a66,66,0,0,1-7.32-.4A60.45,60.45,0,0,1,5,10.25l.74-2.91a56.05,56.05,0,0,0,7.54,1.35,64.64,64.64,0,0,0,14.25,0,58.08,58.08,0,0,0,7.18-1.3l.73,2.91a57.35,57.35,0,0,1-7.56,1.36A65.56,65.56,0,0,1,20.3,12.07Z"/><path class="cls-1" d="M6,33.47l-.72-2.91a59.22,59.22,0,0,1,7.85-1.38,67.39,67.39,0,0,1,14.62,0,59.07,59.07,0,0,1,7.47,1.33l-.71,2.91a55.34,55.34,0,0,0-7.1-1.25,63.76,63.76,0,0,0-13.95,0A56.6,56.6,0,0,0,6,33.47Z"/><rect class="cls-1" x="1.34" y="18.75" width="37.82" height="3"/><rect class="cls-1" x="18.75" y="1.34" width="3" height="37.82"/></g></g></svg>