<svg xmlns="http://www.w3.org/2000/svg" viewBox="0 0 37.71 30.2"><defs><style>.cls-1{fill:#fff;}</style></defs><g id="Layer_2" data-name="Layer 2"><g id="contents"><path class="cls-1" d="M2.42,27.75H6.94l.55,2.37c-2,0-3.82.11-5.65,0A2.21,2.21,0,0,1,0,27.38c.23-2.18.52-4.35.8-6.53Q2,11.61,3.17,2.37C3.38.69,4.09,0,5.77,0H29c1.72,0,2.41.57,2.8,2.22q2.89,12.27,5.8,24.54c.55,2.3-.35,3.44-2.71,3.44H12.31c-1.77,0-2.47-.56-2.87-2.25Q7.34,19.1,5.25,10.27c-.07-.33-.18-.65-.27-1H4.75C4,15.4,3.2,21.51,2.42,27.75Zm26.9-25.2H5.94c2,8.46,4,16.81,5.94,25.13H35.27C33.27,19.23,31.3,10.89,29.32,2.55Z"/><path class="cls-1" d="M14.11,15.9l1.82-1.59,2.81,3.24c1.46,1.67,1.54,1.66,2.42-.37q1.71-4,3.4-7.91c.14-.34.3-.67.51-1.12l2.15.94a5.37,5.37,0,0,1-.17.58c-1.34,3.12-2.67,6.24-4,9.35-1.1,2.51-3.7,2.9-5.49.84Z"/></g></g></svg>