<svg xmlns="http://www.w3.org/2000/svg" viewBox="0 0 84 263.78"><defs><style>.cls-1{fill:#f26666;}.cls-2{fill:#fff;}.cls-3,.cls-4{fill:#f45b5b;stroke:#fff;stroke-width:3px;}.cls-3{stroke-miterlimit:10;}.cls-4{stroke-linecap:round;stroke-linejoin:round;}</style></defs><g id="Layer_2" data-name="Layer 2"><g id="sidebnr"><path class="cls-1" d="M9.92,29.2H84a0,0,0,0,1,0,0V263.78a0,0,0,0,1,0,0H9.92A9.92,9.92,0,0,1,0,253.86V39.12A9.92,9.92,0,0,1,9.92,29.2Z"/><path class="cls-2" d="M64.31,100.58a12.52,12.52,0,0,1-1.46,1.57,5.92,5.92,0,0,0-1.59-1.23,8.89,8.89,0,0,0,2.6-3.08,3.87,3.87,0,0,0,.28-.74H60.69v12.37H73.07a13.7,13.7,0,0,0,2.11-.12v2.13a12.68,12.68,0,0,0-2.09-.13H60.69v.78H58.48a17,17,0,0,0,.12-2.21V97.18a20,20,0,0,0-.08-2,14.35,14.35,0,0,0,2,.1h12.2a12.6,12.6,0,0,0,2.13-.14v2.11a13.39,13.39,0,0,0-2.08-.11H64.43l1.67.49a1.76,1.76,0,0,0-.15.35c-.15.3-.15.3-.46.85h6.25a12.47,12.47,0,0,0,1.86-.09v2a13.1,13.1,0,0,0-1.84-.09H68.84a3.34,3.34,0,0,1,0,.41c0,.55,0,.93-.1,1.47h4.16a11.33,11.33,0,0,0,1.83-.1v2a12,12,0,0,0-1.89-.1H69.27c1,1.52,2.59,2.38,5.55,2.91a7.09,7.09,0,0,0-1,2c-3.08-.85-4.77-2-6-3.87-1,1.82-2.74,3-5.49,3.87a6,6,0,0,0-1.16-1.82,10,10,0,0,0,2.85-1,5.18,5.18,0,0,0,2.16-2H63.55a13.44,13.44,0,0,0-2,.1v-2a13.4,13.4,0,0,0,2.09.1h3.08a16.5,16.5,0,0,0,.11-1.88Z"/><path class="cls-2" d="M60.34,117.92a8.66,8.66,0,0,0,.88-2.56l2.09.25a16.61,16.61,0,0,1-.93,2.31h1.17c.52,0,.9,0,1.28,0a11.34,11.34,0,0,0,0,1.17v3.39a11.72,11.72,0,0,0,0,1.34c-.4,0-.63,0-1.22,0H60.4v1.63h3.23a11.35,11.35,0,0,0,1.35-.06,10.11,10.11,0,0,0-.06,1.43v4.06a10.69,10.69,0,0,0,.08,1.56H63v-.85h-2.6v1.33H58.31a13,13,0,0,0,.13-2V119.41c0-.44,0-1.28-.09-1.54.36,0,.82,0,1.33,0Zm.06,4h2.49v-2.2H60.4Zm0,7.75H63v-2.49H60.4Zm6.69-11.59a13,13,0,0,0-1.88.1v-2.07a15.14,15.14,0,0,0,2,.11h6.19a15.19,15.19,0,0,0,2-.11v2.07a13.25,13.25,0,0,0-1.88-.1H71.21v2h2.17A10.34,10.34,0,0,0,74.9,120a9.59,9.59,0,0,0-.06,1.5v7.74a1.79,1.79,0,0,1-.51,1.38,2.11,2.11,0,0,1-1.39.31c-.29,0-.46,0-.91,0a4.73,4.73,0,0,0-.42-1.94,6.61,6.61,0,0,0,1,.13c.26,0,.34-.07.34-.36v-6.87H71.21v9.25a12.08,12.08,0,0,0,.11,1.9H69.14a12.07,12.07,0,0,0,.13-1.9v-9.25H67.81v7.46a12.31,12.31,0,0,0,.08,1.83H65.81a12.11,12.11,0,0,0,.1-2.08v-7.48a10.56,10.56,0,0,0-.08-1.58,10.69,10.69,0,0,0,1.6.08h1.84v-2Z"/><path class="cls-2" d="M57.85,144c.82-.57,1.64-1.5,4.15-4.66a5.7,5.7,0,0,1,1.17-1.19,2.35,2.35,0,0,1,3.23.15,11.86,11.86,0,0,1,1.28,1.37,60.74,60.74,0,0,0,5.68,5.81,11.86,11.86,0,0,0,2.07,1.6l-1.16,2.69a4.73,4.73,0,0,0-.55-.55c-1-.87-2.49-2.3-3.88-3.68s-1.48-1.54-3.51-3.86c-1.18-1.35-1.29-1.44-1.66-1.44s-.49.17-1.13,1a53.18,53.18,0,0,1-3.75,4.6,4.22,4.22,0,0,0-.4.51Z"/><path class="cls-2" d="M66.08,163.62c-1.08,2.45-2.3,3.57-3.86,3.57-2.16,0-3.72-2.2-3.72-5.26a8.16,8.16,0,0,1,2.09-5.53,8.53,8.53,0,0,1,6.54-2.66c4.55,0,7.52,2.77,7.52,7A7.31,7.31,0,0,1,70,167.87a12.45,12.45,0,0,1-3,.8,6,6,0,0,0-1.16-2.22,10,10,0,0,0,3.78-1,5.31,5.31,0,0,0,2.64-4.75A4.7,4.7,0,0,0,70,156.44a4.06,4.06,0,0,0-1.91-.57A27.49,27.49,0,0,1,66.08,163.62Zm-2.79-6.8A6.35,6.35,0,0,0,60.7,162c0,1.55.67,2.79,1.51,2.79.62,0,1.27-.8,1.95-2.43a25.26,25.26,0,0,0,1.58-6.42A4.8,4.8,0,0,0,63.29,156.82Z"/><path class="cls-2" d="M62.89,177.81a10.06,10.06,0,0,0,2.54,3.67l-.22.36a5.74,5.74,0,0,0-.76,1.61,12.25,12.25,0,0,1-1.81-3.19c.06,1.1.08,1.56.08,2.6v4.89a20.36,20.36,0,0,0,.11,2.33H60.59a18.39,18.39,0,0,0,.11-2.33v-3.92c0-.83.06-2.18.14-2.85a16.26,16.26,0,0,1-1.14,2.89,11.85,11.85,0,0,1-1.12,1.94,7.42,7.42,0,0,0-1-2.07,15.82,15.82,0,0,0,2.91-5.93h-.93a8.88,8.88,0,0,0-1.39.08v-2a6.4,6.4,0,0,0,1.41.1H60.7v-1.54a11.79,11.79,0,0,0-.11-2h2.24a13.66,13.66,0,0,0-.11,1.95V176H63.8a5.46,5.46,0,0,0,1.22-.1v2c-.44,0-.76-.06-1.2-.06Zm2.6,12.2c.06-.7.1-1.5.1-2.43V175.13c0-.64,0-1.1-.08-2,.51,0,.87.06,1.69.06h5.7a10.55,10.55,0,0,0,1.63-.08c0,.55,0,1.06,0,1.94v12.52c0,1,0,1.82.09,2.41H72.41v-1.08H67.64V190Zm2.15-12.2h4.77v-2.7H67.64Zm0,4.49h4.77v-2.68H67.64Zm0,4.69h4.77V184.1H67.64Z"/><path class="cls-2" d="M57.84,196.55a8.94,8.94,0,0,0,1.52.09h3.72a11.65,11.65,0,0,0,1.52-.07v2a9.84,9.84,0,0,0-1.44-.07h-3.8a12.71,12.71,0,0,0-1.52.07Zm13,4.61a6,6,0,0,0-.07,1.07,6.42,6.42,0,0,0,1.31,4.33,8.43,8.43,0,0,0,3.61,2.49,7.22,7.22,0,0,0-1.09,2,9.59,9.59,0,0,1-4.73-4.71A7.51,7.51,0,0,1,65,211.1a8.19,8.19,0,0,0-.92-1.73c0,.68,0,.89.08,1.31H62.3v-.78H60.42v1h-2c.06-.59.1-1.25.1-1.86v-2.91a11.6,11.6,0,0,0-.08-1.48,7.36,7.36,0,0,0,1.27.08H63a5.48,5.48,0,0,0,1.14-.06A10.72,10.72,0,0,0,64.1,206v3.19a6.7,6.7,0,0,0,3.23-2c1-1.14,1.41-2.62,1.41-4.84a9.48,9.48,0,0,0-.06-1.18Zm-12.23-7.27a8.69,8.69,0,0,0,1.54.09h2.43a8.91,8.91,0,0,0,1.54-.09v1.82c-.52,0-.86-.06-1.54-.06H60.12c-.69,0-1.09,0-1.54.06Zm0,5.51a11.69,11.69,0,0,0,1.19,0h3.12a10.78,10.78,0,0,0,1.18,0v1.76a9.46,9.46,0,0,0-1.18,0H59.77a9.34,9.34,0,0,0-1.19,0Zm0,2.64a11.69,11.69,0,0,0,1.19.05h3.12a10.78,10.78,0,0,0,1.18-.05v1.76a11.77,11.77,0,0,0-1.2-.05h-3.1a11.69,11.69,0,0,0-1.19.05Zm1.78,6.23h2v-2h-2Zm10.47-14.73a6.83,6.83,0,0,0-.08,1.09,7.22,7.22,0,0,0,.48,2.73A5.42,5.42,0,0,0,73,199.51a8.12,8.12,0,0,0,2.42,1.18,8,8,0,0,0-1.05,1.88,9.72,9.72,0,0,1-3.23-2.32,7.34,7.34,0,0,1-1.33-2,7.06,7.06,0,0,1-1.31,2.2,8.47,8.47,0,0,1-3.15,2.15,6.21,6.21,0,0,0-1.1-1.71,6.14,6.14,0,0,0,3.68-2.6,6.58,6.58,0,0,0,.84-3.65,9.33,9.33,0,0,0-.06-1.07Zm-3.21,9.69a11.31,11.31,0,0,1-1.35,3.35l-1.77-.8a7.35,7.35,0,0,0,1.28-3.12Zm.13-8.36a10.8,10.8,0,0,1-1.25,3.29l-1.79-.72a6.91,6.91,0,0,0,1.16-3Zm7.35,0a15.21,15.21,0,0,1-2.1,3.27,6.06,6.06,0,0,0-1.62-1,9.49,9.49,0,0,0,1.88-3Zm0,8.3a14.17,14.17,0,0,1-2,3.21,6,6,0,0,0-1.6-1,9.59,9.59,0,0,0,1.73-3Z"/><path class="cls-2" d="M41.53,99a11.22,11.22,0,0,0,.86-1.94H37.54a21.8,21.8,0,0,0-2.33.11V95.1a19.34,19.34,0,0,0,2.31.12H50a20.12,20.12,0,0,0,2.32-.12v2.11A22,22,0,0,0,50,97.1H44.71A11.25,11.25,0,0,1,43.87,99h5.68a17.14,17.14,0,0,0,2.24-.1,18.52,18.52,0,0,0-.11,2.45v8.27a25.8,25.8,0,0,0,.11,2.58H49.64v-.93H37.94v.91H35.8a20.91,20.91,0,0,0,.11-2.58v-8.27c0-.93,0-1.65-.11-2.43A17,17,0,0,0,38,99Zm-1.4,1.76H37.94v8.67h2.19ZM42,102.49h3.44V100.8H42Zm3.44,1.71H42v1.71h3.44Zm0,5.27v-1.85H42v1.85Zm1.9,0h2.29V100.8H47.35Z"/><path class="cls-2" d="M35,118.63a8.94,8.94,0,0,0,1.52.09h3.72a11.65,11.65,0,0,0,1.52-.07v1.95a9.84,9.84,0,0,0-1.44-.07h-3.8a12.71,12.71,0,0,0-1.52.07Zm13,4.61a6,6,0,0,0-.07,1.07,6.4,6.4,0,0,0,1.31,4.33,8.43,8.43,0,0,0,3.61,2.49,7.22,7.22,0,0,0-1.09,2A9.59,9.59,0,0,1,47,128.43a7.51,7.51,0,0,1-4.8,4.75,8.19,8.19,0,0,0-.92-1.73c0,.68,0,.89.08,1.31H39.5V132H37.62v1h-2c.06-.59.1-1.25.1-1.86V128.2a11.6,11.6,0,0,0-.08-1.48,7.36,7.36,0,0,0,1.27.08h3.27a5.48,5.48,0,0,0,1.14-.06,11.25,11.25,0,0,0,0,1.37v3.19a6.78,6.78,0,0,0,3.22-2c1-1.14,1.41-2.63,1.41-4.85a9.48,9.48,0,0,0-.06-1.18ZM35.78,116a8.69,8.69,0,0,0,1.54.09h2.43a8.91,8.91,0,0,0,1.54-.09v1.82c-.52,0-.86-.06-1.54-.06H37.32c-.69,0-1.09,0-1.54.06Zm0,5.51a11.84,11.84,0,0,0,1.19,0h3.12a10.78,10.78,0,0,0,1.18,0v1.76a9.36,9.36,0,0,0-1.18,0H37a9.44,9.44,0,0,0-1.19,0Zm0,2.64a11.84,11.84,0,0,0,1.19,0h3.12a10.78,10.78,0,0,0,1.18,0v1.76a11.77,11.77,0,0,0-1.2,0H37a11.69,11.69,0,0,0-1.19,0Zm1.78,6.23h2v-2h-2ZM48,115.62a6.83,6.83,0,0,0-.08,1.09,7.22,7.22,0,0,0,.48,2.73,5.42,5.42,0,0,0,1.78,2.15,8.12,8.12,0,0,0,2.42,1.18,8,8,0,0,0-1.05,1.88,9.72,9.72,0,0,1-3.23-2.32,7.34,7.34,0,0,1-1.33-2,7.06,7.06,0,0,1-1.31,2.2,8.36,8.36,0,0,1-3.15,2.15,6.21,6.21,0,0,0-1.1-1.71,6.14,6.14,0,0,0,3.68-2.6,6.58,6.58,0,0,0,.84-3.65,9.33,9.33,0,0,0-.06-1.07Zm-3.21,9.69a11.31,11.31,0,0,1-1.35,3.35l-1.77-.8A7.35,7.35,0,0,0,43,124.74ZM45,117a10.8,10.8,0,0,1-1.25,3.29l-1.79-.72a6.91,6.91,0,0,0,1.16-3Zm7.35,0a15.21,15.21,0,0,1-2.1,3.27,6.06,6.06,0,0,0-1.62-1,9.49,9.49,0,0,0,1.88-3Zm0,8.3a14.48,14.48,0,0,1-2,3.22,5.78,5.78,0,0,0-1.6-1,9.59,9.59,0,0,0,1.73-3Z"/><path class="cls-2" d="M50.73,138.44a22.21,22.21,0,0,1-2.21,1.81c-1.15.78-2,1.31-2.94,1.92.42.26.44.28.89.59l-.57.57h3.4a15,15,0,0,0,2.11-.1l1.2,1.27s-.44.55-1.24,1.62a17.17,17.17,0,0,1-3,3.13,6.14,6.14,0,0,0-1.67-1.42,12.22,12.22,0,0,0,2.76-2.59H45v6.54c0,1.56-.63,2-3,2-.63,0-1.58,0-2.17-.06a7.81,7.81,0,0,0-.55-2.11,18.6,18.6,0,0,0,2.77.19c.63,0,.76-.09.76-.51v-6h-5a19,19,0,0,0-2.4.12v-2.15a18.25,18.25,0,0,0,2.49.12h5.87a37.31,37.31,0,0,0-4.18-2.7L41,139.34c1.25.68,1.67.95,2.79,1.65a20,20,0,0,0,3-2H39.42a16.16,16.16,0,0,0-2.29.1V137a16.09,16.09,0,0,0,2.33.11h8.46a13.11,13.11,0,0,0,1.63-.07Z"/><path class="cls-2" d="M37.71,168.2a20.67,20.67,0,0,1-.93,5.62L35.09,173a18.05,18.05,0,0,0,.9-5.11Zm-2.52-2.87a4.73,4.73,0,0,0,.81,0h.76c.65-.8.73-.9,1.11-1.39a17.69,17.69,0,0,0-2.61-2.81l1.09-1.58c.26.32.38.44.57.67a14.18,14.18,0,0,0,1.57-3.08l1.81.74a6.85,6.85,0,0,0-.4.68,25.15,25.15,0,0,1-1.77,2.91c.33.38.53.61.8,1a20.69,20.69,0,0,0,2-3.33l1.75,1a8.63,8.63,0,0,0-.63.88,49,49,0,0,1-3.21,4.27c1.12-.06,1.2-.06,2.17-.17a10.05,10.05,0,0,0-.55-1.29l1.42-.57a27.32,27.32,0,0,1,1.5,3.7l-1.59.67c-.1-.44-.14-.59-.21-.9-.57.06-1,.12-1.35.14v6a15,15,0,0,0,.11,2H38.3a13.24,13.24,0,0,0,.12-2V167c-.82.05-1.41.09-1.79.13-.82.06-.87.06-1.23.11Zm7.35,2.49a47,47,0,0,1,.91,4.84l-1.73.42A44.56,44.56,0,0,0,41,168.2ZM45.71,162a12.78,12.78,0,0,1-1.9,3,5.53,5.53,0,0,0-1.52-1.54,12.17,12.17,0,0,0,2.24-3.78,12,12,0,0,0,.69-2.39l2.13.38a5.52,5.52,0,0,0-.25.78c-.25.78-.32,1-.55,1.59h4.14a10.23,10.23,0,0,0,1.56-.07,23,23,0,0,0-.1,3.3c0,2.17-.23,5.48-.43,7-.31,2.19-.65,3.23-1.28,3.73a4.05,4.05,0,0,1-2.43.49c-.49,0-1.08,0-1.77-.08a7.33,7.33,0,0,0-.53-2.12,14.84,14.84,0,0,0,2.49.24c.86,0,1.06-.22,1.29-1.4A52.63,52.63,0,0,0,50.1,162Zm.88,7.94a20.74,20.74,0,0,0-2.17-4.82l1.65-.91A21.69,21.69,0,0,1,48.41,169Z"/><path class="cls-2" d="M38.36,190.79v1.08H36.12a13.94,13.94,0,0,0,.09-2v-7.37a12.19,12.19,0,0,0-.09-1.82c.7.06,1.16.07,2.11.07H42.6v-.55a11.77,11.77,0,0,0-.12-2.07h2.36a10.84,10.84,0,0,0-.13,2v.62h4.5a21.39,21.39,0,0,0,2.18-.07,13.11,13.11,0,0,0-.09,1.8v7.39a14.49,14.49,0,0,0,.09,2H49.13v-1.08H44.71v2.56a14.79,14.79,0,0,0,.13,2.38H42.46a15.67,15.67,0,0,0,.14-2.38v-2.56Zm0-8.1v2.13H42.6v-2.13Zm0,4v2.19H42.6V186.7Zm6.35-1.88h4.42v-2.13H44.71Zm0,4.07h4.42V186.7H44.71Z"/><path class="cls-2" d="M35.17,206.22a9.16,9.16,0,0,0,1.52.09h1.56a8.88,8.88,0,0,0,1.44-.09,18.42,18.42,0,0,0-.08,2.09v4a2.44,2.44,0,0,0,1.09,1.21c.91.57,1.9.7,5.16.7a53.52,53.52,0,0,0,7-.39,10.86,10.86,0,0,0-.57,2.26c-1.69.05-4.44.11-5.75.11-3.12,0-4.66-.11-5.65-.44A4.51,4.51,0,0,1,38.53,214a18,18,0,0,1-2,1.69l-.58.45-.28.23-.93-2.16a12.13,12.13,0,0,0,2.83-1.87v-4.08H36.46a6.62,6.62,0,0,0-1.29.1Zm1.8-6.86a23.29,23.29,0,0,1,3.33,3.47l-1.58,1.54a19.52,19.52,0,0,0-3.27-3.59Zm6.12,2.33a9.26,9.26,0,0,0-1.58.1v-2a9.14,9.14,0,0,0,1.58.09h2.72a10,10,0,0,0,1.38-.07c0,.43,0,.7,0,1a13,13,0,0,0,1.25,5.51,11.39,11.39,0,0,0,4.18,4.88,8.91,8.91,0,0,0-1.25,2,13.86,13.86,0,0,1-3-3,13.44,13.44,0,0,1-2.13-4.51,11.3,11.3,0,0,1-2.07,4.64,12,12,0,0,1-2.57,2.6,10.28,10.28,0,0,0-1.5-1.65,10.4,10.4,0,0,0,2.51-2.43,12.31,12.31,0,0,0,2.11-4.52,14.44,14.44,0,0,0,.36-2.65Z"/><path class="cls-2" d="M15.66,95.52a12.05,12.05,0,0,0,1.86.1c1.71,0,4.16-.1,5.64-.21a6.9,6.9,0,0,0,1.79-.3l1.23,1.57a8.58,8.58,0,0,0-1.1.93,52.69,52.69,0,0,1-5.23,4.14c.95-.13,2.32-.26,4.62-.45l2.51-.19c.68-.08,1.18-.12,1.35-.13a2.91,2.91,0,0,0,.62-.08l.14,2.22h-.57a12.91,12.91,0,0,0-5.28.93c-1.54.71-2.59,1.86-2.59,2.89,0,1.24,1.37,1.92,3.82,1.92a7.49,7.49,0,0,0,1.8-.17l.1,2.41c-.21,0-.44,0-.7,0l-1,0h-.25a12.49,12.49,0,0,1-3.53-.53,3.55,3.55,0,0,1-2.68-3.33,3.67,3.67,0,0,1,1-2.47,6.57,6.57,0,0,1,2-1.44c-.82.15-1.43.25-2.34.36s-1.56.19-2.09.27q-1.14.14-3.06.42a5,5,0,0,0-.87.19l-.23-2.32a2,2,0,0,0,.3,0c.38,0,1.18-.06,1.64-.12.09,0,.34,0,.72-.09s.65-.08,1.08-.15a36.77,36.77,0,0,0,5.84-4.68,46.26,46.26,0,0,1-5.3.42c-.5,0-.82.06-1.22.11Z"/><path class="cls-2" d="M20.48,125.54c-1.08,2.45-2.3,3.57-3.86,3.57-2.16,0-3.72-2.2-3.72-5.26A8.16,8.16,0,0,1,15,118.32a8.53,8.53,0,0,1,6.54-2.66c4.55,0,7.52,2.78,7.52,7a7.32,7.32,0,0,1-4.62,7.09,12,12,0,0,1-3,.79,6,6,0,0,0-1.16-2.22,10.17,10.17,0,0,0,3.78-1,5.33,5.33,0,0,0,2.64-4.75,4.7,4.7,0,0,0-2.34-4.22,4.17,4.17,0,0,0-1.91-.57A27.4,27.4,0,0,1,20.48,125.54Zm-2.79-6.8a6.36,6.36,0,0,0-2.59,5.13c0,1.56.67,2.79,1.51,2.79.62,0,1.27-.8,1.95-2.43a25.16,25.16,0,0,0,1.58-6.42A4.8,4.8,0,0,0,17.69,118.74Z"/><path class="cls-2" d="M14.29,144.2c0-.46,0-.46.05-2.09a13.46,13.46,0,0,1-1.59,2.19,13.49,13.49,0,0,0-1-2.25,15.15,15.15,0,0,0,3.36-5.24,11.56,11.56,0,0,0,.74-2.56l2.15.64c-.15.44-.19.55-.38,1.08a19.58,19.58,0,0,1-1.33,3.14v10.58c0,.89,0,1.58.1,2.3H14.17a18.15,18.15,0,0,0,.12-2.32Zm6.36-2.09v6.65c0,.38.1.49.51.59a10.94,10.94,0,0,0,2.4.15c2.14,0,3-.08,3.38-.36a1.33,1.33,0,0,0,.46-.87c.05-.37.07-.59.13-1.51a8.22,8.22,0,0,0,2.07.61c-.23,2.17-.48,2.91-1.06,3.37s-2,.68-5.46.68-4.44-.38-4.44-1.9v-6.74l-.38.11a8.89,8.89,0,0,0-1.1.44L17,141.16a11.58,11.58,0,0,0,1.65-.38v-2.24a11.43,11.43,0,0,0-.12-2h2.25a10.16,10.16,0,0,0-.12,1.93v1.69l2-.62v-3.1a13.92,13.92,0,0,0-.12-1.9H24.7a12.24,12.24,0,0,0-.12,1.84v2.53l2.78-.89a11.55,11.55,0,0,0,1.54-.57c0,.4,0,.55,0,1,0,2.28-.17,4.9-.33,6.14-.19,1.42-.66,1.84-2.12,1.84-.36,0-.57,0-1.05-.06a6.2,6.2,0,0,0-.53-1.93,8.66,8.66,0,0,0,1.29.17c.42,0,.5-.13.61-1a32.5,32.5,0,0,0,.15-3.51l-2.32.76v4.94a11.18,11.18,0,0,0,.12,1.9H22.49a10.9,10.9,0,0,0,.12-2v-4.24Z"/><path class="cls-2" d="M19.34,168.8a5.86,5.86,0,0,1-.15,1.62,1.68,1.68,0,0,1-1.75,1.1,5.89,5.89,0,0,1-3.59-1.35,2.8,2.8,0,0,1-1-2.14,4,4,0,0,1,1.63-2.82,10.32,10.32,0,0,1,2.77-1.61l0-2.93-.77,0c-.29,0-.56,0-1,0l-1.05,0-.47,0a3.36,3.36,0,0,0-.4,0l0-2.13a11.06,11.06,0,0,0,2.3.18c.19,0,.4,0,.67,0l.76,0v-1.26a12.35,12.35,0,0,0-.12-2.18h2.38a11.12,11.12,0,0,0-.12,2.07v1.22a21.37,21.37,0,0,0,3.67-.73l.07,2.13-2,.34c-.63.12-1,.17-1.73.25V163a13.18,13.18,0,0,1,3.88-.53c3.17,0,5.43,1.94,5.43,4.63a4.22,4.22,0,0,1-4.31,4.33,3.08,3.08,0,0,1-3.12-2.1,6.55,6.55,0,0,1-.32-2.44,7.74,7.74,0,0,0,2.11-.83,6.2,6.2,0,0,0,0,.83,3.71,3.71,0,0,0,.27,1.68,1.32,1.32,0,0,0,1.19.64,2,2,0,0,0,1.92-2.11c0-1.63-1.33-2.69-3.36-2.69a12.09,12.09,0,0,0-3.65.62Zm-2.15-3.05c-1.42.76-2.26,1.59-2.26,2.28,0,.32.19.6.63.87a2.27,2.27,0,0,0,1.22.42c.32,0,.41-.17.41-.8Zm10.53-3.84a16.25,16.25,0,0,0-3.8-4.1l1.78-1.2a16,16,0,0,1,3.77,3.89Z"/><path class="cls-2" d="M15.07,190.75a16,16,0,0,0,.11,2.34H13a18.24,18.24,0,0,0,.11-2.36V178.29c0-1,0-1.54-.07-2.15a16.64,16.64,0,0,0,1.93.08H18.3a15.16,15.16,0,0,0,1.93-.08c0,.61-.05,1.05-.05,1.79v3.13c0,.86,0,1.29.05,1.71-.45,0-1.12-.06-1.74-.06H15.07Zm0-12h3.24v-1H15.07Zm0,2.47h3.24v-1H15.07Zm9.61,7.52a11.34,11.34,0,0,0,.06,1.3,13,13,0,0,0-1.35-.06H19.15v1.27h-2c.05-.53.09-1.12.09-1.84v-4.07c0-.51,0-.93-.05-1.33.41,0,.85.06,1.4.06h4.69c.59,0,1.07,0,1.47-.06a12,12,0,0,0-.06,1.32Zm-5.53-.49h3.61v-2.49H19.15Zm9.8,2.49c0,1-.17,1.54-.66,1.84a3.84,3.84,0,0,1-2,.31c-.3,0-.51,0-1.76-.08a6.62,6.62,0,0,0-.54-2c.8.09,1.71.17,2.34.17s.63-.08.63-.5v-7.77H23.29c-.62,0-1.31,0-1.73.06,0-.51,0-.89,0-1.71v-3.13c0-.73,0-1.24-.06-1.79a16.28,16.28,0,0,0,1.94.08h3.61a17.33,17.33,0,0,0,2-.08,16,16,0,0,0-.1,2.13Zm-5.47-12H27v-1H23.48Zm0,2.47H27v-1H23.48Z"/><path class="cls-2" d="M16.09,202.83a19.19,19.19,0,0,1-3,1.6,7.26,7.26,0,0,0-1.1-1.94,18.94,18.94,0,0,0,4.85-2.73,13.37,13.37,0,0,0,3-3.18H22a12.41,12.41,0,0,0,3.19,3.22,17.89,17.89,0,0,0,4.84,2.6,10.45,10.45,0,0,0-1,2.09,18.64,18.64,0,0,1-3.1-1.67v1.33a13.1,13.1,0,0,0-1.71-.08H17.73a13.74,13.74,0,0,0-1.64.08ZM14.55,214a14.51,14.51,0,0,0,.12-2v-4.42a16.26,16.26,0,0,0-.1-1.88,13.62,13.62,0,0,0,1.64.07H25.7a14.22,14.22,0,0,0,1.66-.07,12.26,12.26,0,0,0-.1,1.88V212a11.31,11.31,0,0,0,.12,2H25.12v-1H16.81v1Zm2.26-2.83h8.31v-3.57H16.81Zm7.39-9h.65a17.06,17.06,0,0,1-3.91-3.7,13.28,13.28,0,0,1-3.73,3.7h7Z"/><path class="cls-2" d="M27.91,233.14l-.86.09c-1.38.15-3.89.29-5.14.29-3.56,0-5.1-.69-5.67-2.51-.26-.85-.34-1.92-.34-5.19,0-.28,0-.36,0-1.84a26.27,26.27,0,0,0-3.51.34l-.16-2.22c.27,0,.46,0,.56,0L15.9,222c0-.31,0-.48,0-.59a19.34,19.34,0,0,0-.13-3.23h2.54a23.1,23.1,0,0,0-.17,3.7l5.49-.26a21.26,21.26,0,0,0-.11-3.76h2.37a9.39,9.39,0,0,0-.09,1.31v2.37a33.26,33.26,0,0,0,3.68-.17l0,2.26a7.53,7.53,0,0,0-1.08-.05H25.82a12.31,12.31,0,0,1-.49,4A2.32,2.32,0,0,1,23,229a6.18,6.18,0,0,1-2.72-.65c0-.38,0-.49,0-.76a10.86,10.86,0,0,0-.13-1.56,5.85,5.85,0,0,0,2.49.93c.49,0,.7-.24.81-1a15.84,15.84,0,0,0,.17-2.38c-2.88.12-2.88.12-5.53.27v.51c0,.1,0,.1,0,1.1v.4c0,1,.05,3.06.09,3.44.15,1.6,1,2,4.07,2a15.33,15.33,0,0,0,5.49-.72Z"/><polyline class="cls-3" points="30.91 65.59 23.16 65.59 23.16 12.93 62.93 12.93 62.93 65.59 37.12 65.59"/><line class="cls-3" x1="32.47" y1="20.41" x2="56.84" y2="20.41"/><line class="cls-3" x1="32.47" y1="29.03" x2="52.93" y2="29.03"/><line class="cls-3" x1="32.47" y1="37.65" x2="49.83" y2="37.65"/><line class="cls-3" x1="32.47" y1="46.27" x2="56.84" y2="46.27"/><line class="cls-3" x1="44.65" y1="55.35" x2="55.46" y2="55.35"/><path class="cls-4" d="M56.92,37.78,52,41l-1.38-5.9,14-32.85a1.49,1.49,0,0,1,2-.55L70,3.1a1.49,1.49,0,0,1,1,1.83Z"/><line class="cls-4" x1="62.96" y1="8.04" x2="68.52" y2="10.42"/></g></g></svg>