<svg xmlns="http://www.w3.org/2000/svg" viewBox="0 0 550.57 125.27"><defs><style>.cls-1{fill:none;stroke-width:6.08px;}.cls-1,.cls-3,.cls-4{stroke:#fff;}.cls-1,.cls-4{stroke-linecap:round;stroke-linejoin:round;}.cls-2{fill:#f26666;}.cls-3,.cls-4{fill:#f45b5b;stroke-width:6.58px;}.cls-3{stroke-miterlimit:10;}.cls-5{fill:#fff;}</style></defs><g id="Layer_2" data-name="Layer 2"><g id="contents"><rect class="cls-1" x="3.04" y="9.02" width="544.49" height="113.21" rx="11.35"/><rect class="cls-2" x="3.04" y="9.02" width="544.49" height="113.21" rx="11.35"/><polyline class="cls-3" points="40.01 109.18 27.21 109.18 27.21 22.18 92.93 22.18 92.93 109.18 50.28 109.18"/><line class="cls-3" x1="42.59" y1="34.53" x2="82.86" y2="34.53"/><line class="cls-3" x1="42.59" y1="48.78" x2="76.4" y2="48.78"/><line class="cls-3" x1="42.59" y1="63.02" x2="71.28" y2="63.02"/><line class="cls-3" x1="42.59" y1="77.27" x2="82.86" y2="77.27"/><line class="cls-3" x1="62.73" y1="92.28" x2="80.58" y2="92.28"/><path class="cls-4" d="M83,63.23l-8.21,5.26L72.5,58.74,95.7,4.47A2.45,2.45,0,0,1,99,3.56l5.58,2.38a2.46,2.46,0,0,1,1.62,3Z"/><line class="cls-4" x1="92.97" y1="14.1" x2="102.16" y2="18.02"/><path class="cls-5" d="M137.89,45.27a19.28,19.28,0,0,1-2.13,2.3,8.77,8.77,0,0,0-2.32-1.8,12.92,12.92,0,0,0,3.79-4.48,5.47,5.47,0,0,0,.41-1.07h-5v18h18a21.32,21.32,0,0,0,3.07-.16v3.1a17.45,17.45,0,0,0-3.05-.2h-18v1.14H129.4a26,26,0,0,0,.17-3.21V40.33c0-1.19,0-2.11-.11-3a21.93,21.93,0,0,0,3,.14h17.75a18.89,18.89,0,0,0,3.1-.2v3.07a18.17,18.17,0,0,0-3-.16H138.06l2.43.71a4.25,4.25,0,0,0-.22.5c-.22.44-.22.44-.67,1.25h9.1a16.91,16.91,0,0,0,2.71-.14v2.87a20,20,0,0,0-2.68-.14h-4.26a5,5,0,0,1,0,.61c0,.8-.05,1.36-.13,2.13h6.05a17.16,17.16,0,0,0,2.65-.14v2.91a18.08,18.08,0,0,0-2.73-.14h-5.17c1.41,2.21,3.76,3.45,8.07,4.23a10.94,10.94,0,0,0-1.44,2.93c-4.48-1.24-6.94-2.85-8.73-5.64-1.5,2.65-4,4.4-8,5.64a8.61,8.61,0,0,0-1.69-2.65,14.79,14.79,0,0,0,4.15-1.53,7.67,7.67,0,0,0,3.15-3h-3.84a20.59,20.59,0,0,0-3,.14V47.87a20.52,20.52,0,0,0,3,.14h4.48c.11-1,.11-1.21.17-2.74Z"/><path class="cls-5" d="M162.52,40.1a13,13,0,0,0,1.28-3.73l3,.36a22.78,22.78,0,0,1-1.36,3.37h1.72a16.69,16.69,0,0,0,1.85-.08,16.19,16.19,0,0,0-.06,1.72v4.92a16.7,16.7,0,0,0,.06,2,14.86,14.86,0,0,0-1.77-.06h-4.67v2.38h4.7a18.65,18.65,0,0,0,2-.08,15.93,15.93,0,0,0-.08,2.07v5.92a17,17,0,0,0,.11,2.27h-2.93V59.87h-3.79v1.94h-3a20.88,20.88,0,0,0,.19-2.9V42.26a22.11,22.11,0,0,0-.14-2.24,18.09,18.09,0,0,0,1.94.08Zm.09,5.84h3.62V42.73h-3.62Zm0,11.28h3.76V53.6h-3.76Zm9.73-16.87a20.21,20.21,0,0,0-2.74.14v-3a20.8,20.8,0,0,0,2.91.16h9a20.84,20.84,0,0,0,2.85-.16v3a20.49,20.49,0,0,0-2.74-.14h-3.29v2.91h3.15a16.18,16.18,0,0,0,2.21-.11,15.08,15.08,0,0,0-.08,2.18V56.58a2.59,2.59,0,0,1-.75,2,3,3,0,0,1-2,.44c-.42,0-.67,0-1.33,0a6.51,6.51,0,0,0-.61-2.82,9.66,9.66,0,0,0,1.44.19c.39,0,.5-.11.5-.52v-10h-2.52V59.29a16.52,16.52,0,0,0,.17,2.77h-3.18a17.72,17.72,0,0,0,.19-2.77V45.83h-2.13V56.69a19.3,19.3,0,0,0,.11,2.66h-3a18.35,18.35,0,0,0,.14-3V45.44a14.73,14.73,0,0,0-.12-2.29,16.91,16.91,0,0,0,2.33.11h2.68V40.35Z"/><path class="cls-5" d="M189.09,50.5c1.19-.83,2.38-2.18,6-6.77A8.34,8.34,0,0,1,196.84,42a3.79,3.79,0,0,1,2.21-.82,3.87,3.87,0,0,1,2.49,1.05,18.65,18.65,0,0,1,1.85,2,88.72,88.72,0,0,0,8.27,8.46,18.27,18.27,0,0,0,3,2.32L213,58.91a5,5,0,0,0-.8-.81c-1.44-1.27-3.62-3.34-5.64-5.36s-2.16-2.24-5.12-5.61c-1.71-2-1.87-2.1-2.4-2.1s-.72.24-1.66,1.49a79,79,0,0,1-5.45,6.69,4.33,4.33,0,0,0-.58.75Z"/><path class="cls-5" d="M230.54,53.35c-1.58,3.56-3.35,5.2-5.62,5.2-3.15,0-5.41-3.21-5.41-7.66a11.86,11.86,0,0,1,3-8A12.41,12.41,0,0,1,232.06,39C238.69,39,243,43,243,49.23a10.65,10.65,0,0,1-6.72,10.31A18.24,18.24,0,0,1,232,60.7a8.76,8.76,0,0,0-1.69-3.23,14.8,14.8,0,0,0,5.5-1.52A7.75,7.75,0,0,0,239.61,49a6.84,6.84,0,0,0-3.4-6.14,6,6,0,0,0-2.8-.83A40,40,0,0,1,230.54,53.35Zm-4.07-9.9a9.27,9.27,0,0,0-3.76,7.46c0,2.27,1,4.07,2.19,4.07.91,0,1.85-1.16,2.85-3.54A36.41,36.41,0,0,0,230,42.1,7,7,0,0,0,226.47,43.45Z"/><path class="cls-5" d="M255.81,44.28a14.58,14.58,0,0,0,3.7,5.34c-.14.22-.25.41-.33.52a8.72,8.72,0,0,0-1.11,2.35,18.37,18.37,0,0,1-2.62-4.64c.08,1.6.11,2.26.11,3.78v7.11a28.07,28.07,0,0,0,.16,3.4h-3.26a28,28,0,0,0,.17-3.4V53c0-1.21.08-3.18.19-4.14a23.1,23.1,0,0,1-1.66,4.2,15.57,15.57,0,0,1-1.63,2.82,10.58,10.58,0,0,0-1.52-3,23.07,23.07,0,0,0,4.23-8.63h-1.35a13.94,13.94,0,0,0-2,.11v-3a9.74,9.74,0,0,0,2,.14h1.72V39.33a17.89,17.89,0,0,0-.17-2.88h3.26a18.94,18.94,0,0,0-.16,2.85v2.27h1.57a8.18,8.18,0,0,0,1.77-.14v2.93c-.63,0-1.1-.08-1.74-.08ZM259.59,62c.09-1,.14-2.18.14-3.54V40.38c0-.94,0-1.6-.11-2.93.75.06,1.27.08,2.46.08h8.3a15.47,15.47,0,0,0,2.38-.11c-.06.8-.09,1.55-.09,2.82V58.46c0,1.47.06,2.66.14,3.51h-3.15V60.4h-6.94V62Zm3.13-17.75h6.94V40.35h-6.94Zm0,6.52h6.94V46.91h-6.94Zm0,6.83h6.94v-4.2h-6.94Z"/><path class="cls-5" d="M278.86,41.13a12.3,12.3,0,0,0,2.22.14h5.42a15.52,15.52,0,0,0,2.21-.11V44a13.07,13.07,0,0,0-2.1-.11h-5.53a17.23,17.23,0,0,0-2.22.11Zm18.89,6.72a9.22,9.22,0,0,0-.11,1.54,9.4,9.4,0,0,0,1.91,6.31,12.31,12.31,0,0,0,5.25,3.62,11,11,0,0,0-1.58,2.93,13.91,13.91,0,0,1-6.88-6.86c-1.16,3.32-3.18,5.34-7,6.92A12.56,12.56,0,0,0,288,59.79a19.13,19.13,0,0,0,.11,1.91h-2.77V60.56h-2.73V62h-2.85c.08-.85.14-1.82.14-2.71V55.06a16.29,16.29,0,0,0-.12-2.15,11.71,11.71,0,0,0,1.86.11h4.75a7.76,7.76,0,0,0,1.66-.09,18,18,0,0,0-.08,2v4.65a9.85,9.85,0,0,0,4.7-3c1.44-1.66,2.05-3.81,2.05-7a13.24,13.24,0,0,0-.09-1.71ZM279.94,37.26a12,12,0,0,0,2.24.13h3.54a12.11,12.11,0,0,0,2.24-.13v2.65c-.74,0-1.24-.08-2.24-.08h-3.54c-1,0-1.57,0-2.24.08Zm0,8a13,13,0,0,0,1.74.09h4.54a11.63,11.63,0,0,0,1.71-.09v2.58a12.61,12.61,0,0,0-1.71-.09h-4.54a13,13,0,0,0-1.74.09Zm0,3.85a15.37,15.37,0,0,0,1.74.08h4.54a13.7,13.7,0,0,0,1.71-.08v2.57a12.93,12.93,0,0,0-1.74-.08h-4.51a13.31,13.31,0,0,0-1.74.08Zm2.6,9.07h2.88V55.26h-2.88Zm15.24-21.43a9.43,9.43,0,0,0-.11,1.57,10.67,10.67,0,0,0,.69,4,7.74,7.74,0,0,0,2.6,3.12,11.22,11.22,0,0,0,3.51,1.71A11.13,11.13,0,0,0,303,49.89a13.72,13.72,0,0,1-4.7-3.37,10.52,10.52,0,0,1-1.94-3,10.36,10.36,0,0,1-1.91,3.21,12.28,12.28,0,0,1-4.59,3.12,9,9,0,0,0-1.6-2.49c2.68-.88,4.23-2,5.36-3.78a9.56,9.56,0,0,0,1.22-5.31c0-.64,0-.94-.08-1.55Zm-4.68,14.1a16.53,16.53,0,0,1-2,4.87l-2.57-1.17A10.55,10.55,0,0,0,290.42,50Zm.2-12.17a16.17,16.17,0,0,1-1.83,4.79l-2.6-1a10.09,10.09,0,0,0,1.69-4.4Zm10.7.06a22.19,22.19,0,0,1-3.07,4.76,8.21,8.21,0,0,0-2.35-1.41,14.06,14.06,0,0,0,2.74-4.4Zm-.06,12.08a19.85,19.85,0,0,1-2.85,4.67,8.7,8.7,0,0,0-2.32-1.43,14.2,14.2,0,0,0,2.52-4.32Z"/><path class="cls-5" d="M318.37,49.28A3.29,3.29,0,1,1,315.08,46,3.27,3.27,0,0,1,318.37,49.28Z"/><path class="cls-5" d="M335.32,43a17.1,17.1,0,0,0,1.25-2.82h-7.05a30.12,30.12,0,0,0-3.41.16V37.31a30.06,30.06,0,0,0,3.38.17h18.22a30.92,30.92,0,0,0,3.37-.17v3.07a30,30,0,0,0-3.37-.16h-7.77A16.11,16.11,0,0,1,338.72,43H347a26.39,26.39,0,0,0,3.26-.14,25.42,25.42,0,0,0-.16,3.56v12a35.28,35.28,0,0,0,.16,3.76h-3.12V60.9h-17v1.32H327a28.55,28.55,0,0,0,.17-3.76v-12A34.57,34.57,0,0,0,327,42.9a26.19,26.19,0,0,0,3.26.14Zm-2,2.57H330.1v12.6h3.18ZM336,48.07h5V45.61h-5Zm5,2.49h-5V53h5Zm0,7.65V55.53h-5v2.68Zm2.76,0h3.35V45.61h-3.35Z"/><path class="cls-5" d="M356.28,41.13a12.18,12.18,0,0,0,2.21.14h5.42a15.43,15.43,0,0,0,2.21-.11V44a13.07,13.07,0,0,0-2.1-.11h-5.53a17,17,0,0,0-2.21.11Zm18.88,6.72a9.22,9.22,0,0,0-.11,1.54A9.4,9.4,0,0,0,377,55.7a12.31,12.31,0,0,0,5.25,3.62,11,11,0,0,0-1.57,2.93,13.94,13.94,0,0,1-6.89-6.86c-1.16,3.32-3.18,5.34-7,6.92a12.55,12.55,0,0,0-1.33-2.52c0,1,.06,1.3.11,1.91h-2.76V60.56H360V62h-2.85c.08-.85.14-1.82.14-2.71V55.06a18.28,18.28,0,0,0-.11-2.15,11.49,11.49,0,0,0,1.85.11h4.76a7.87,7.87,0,0,0,1.66-.09,15.27,15.27,0,0,0-.09,2v4.65a9.8,9.8,0,0,0,4.7-3c1.44-1.66,2-3.81,2-7a15.68,15.68,0,0,0-.08-1.71Zm-17.8-10.59a11.92,11.92,0,0,0,2.24.13h3.53a12.11,12.11,0,0,0,2.24-.13v2.65c-.74,0-1.24-.08-2.24-.08H359.6c-1,0-1.58,0-2.24.08Zm0,8a12.8,12.8,0,0,0,1.74.09h4.53a11.7,11.7,0,0,0,1.72-.09v2.58a12.88,12.88,0,0,0-1.72-.09H359.1a12.8,12.8,0,0,0-1.74.09Zm0,3.85a15.11,15.11,0,0,0,1.74.08h4.53a13.77,13.77,0,0,0,1.72-.08v2.57a13.1,13.1,0,0,0-1.75-.08h-4.5a13.12,13.12,0,0,0-1.74.08Zm2.6,9.07h2.87V55.26H360Zm15.23-21.43a10.64,10.64,0,0,0-.11,1.57,10.87,10.87,0,0,0,.69,4,7.91,7.91,0,0,0,2.6,3.12,11.33,11.33,0,0,0,3.51,1.71,11.47,11.47,0,0,0-1.52,2.74,13.81,13.81,0,0,1-4.7-3.37,10.74,10.74,0,0,1-1.94-3,10.34,10.34,0,0,1-1.9,3.21,12.28,12.28,0,0,1-4.59,3.12,9.29,9.29,0,0,0-1.61-2.49c2.68-.88,4.23-2,5.37-3.78a9.65,9.65,0,0,0,1.21-5.31,13.07,13.07,0,0,0-.08-1.55Zm-4.67,14.1a16.51,16.51,0,0,1-2,4.87L366,54.56A10.68,10.68,0,0,0,367.84,50Zm.19-12.17a15.89,15.89,0,0,1-1.82,4.79l-2.6-1A10.21,10.21,0,0,0,368,38Zm10.7.06a22.19,22.19,0,0,1-3.07,4.76A8.08,8.08,0,0,0,376,42.1a13.88,13.88,0,0,0,2.74-4.4Zm-.05,12.08a20.54,20.54,0,0,1-2.85,4.67,8.76,8.76,0,0,0-2.33-1.43,14.2,14.2,0,0,0,2.52-4.32Z"/><path class="cls-5" d="M409.53,39.55a31.35,31.35,0,0,1-3.21,2.63c-1.69,1.13-2.85,1.91-4.28,2.79l1.3.86-.83.83h4.94a23.29,23.29,0,0,0,3.07-.14l1.75,1.85s-.64.8-1.8,2.35a25.45,25.45,0,0,1-4.4,4.56,9,9,0,0,0-2.43-2.07,17.92,17.92,0,0,0,4-3.76h-6.42V59c0,2.27-.91,2.88-4.31,2.88-.91,0-2.29,0-3.15-.09a11.76,11.76,0,0,0-.8-3.07,25.62,25.62,0,0,0,4,.28c.92,0,1.11-.14,1.11-.75V49.45h-7.33a28.87,28.87,0,0,0-3.48.17V46.49a27.61,27.61,0,0,0,3.62.17h8.54a56.15,56.15,0,0,0-6.08-3.93l2-1.88c1.82,1,2.43,1.38,4.06,2.41a30.71,30.71,0,0,0,4.4-2.85H393.08a25.07,25.07,0,0,0-3.35.14V37.48a22.39,22.39,0,0,0,3.4.16h12.31a15.8,15.8,0,0,0,2.37-.11Z"/><path class="cls-5" d="M421,52.44a30.82,30.82,0,0,1-1.35,8.18l-2.47-1.13a25.62,25.62,0,0,0,1.3-7.44Zm-3.68-4.18a6.88,6.88,0,0,0,1.19.08l1.11,0c.94-1.17,1.05-1.3,1.6-2a25.36,25.36,0,0,0-3.79-4.09l1.58-2.3c.39.47.55.64.83,1a20.17,20.17,0,0,0,2.29-4.48l2.63,1.08a10.62,10.62,0,0,0-.58,1,37.22,37.22,0,0,1-2.57,4.23c.47.56.77.89,1.16,1.39a31.86,31.86,0,0,0,3-4.84l2.54,1.46a11.69,11.69,0,0,0-.91,1.27,74.86,74.86,0,0,1-4.67,6.23c1.63-.09,1.74-.09,3.15-.25a15.54,15.54,0,0,0-.8-1.88l2.07-.83a41.48,41.48,0,0,1,2.18,5.39l-2.32,1c-.14-.64-.19-.86-.3-1.3-.83.08-1.47.16-2,.19v8.71a20.37,20.37,0,0,0,.17,3h-3a20.62,20.62,0,0,0,.16-3V50.75l-2.6.19c-1.18.09-1.27.09-1.79.17ZM428,51.88a67.87,67.87,0,0,1,1.33,7l-2.51.61a66.2,66.2,0,0,0-1.06-7.1Zm4.62-8.4a19.23,19.23,0,0,1-2.76,4.37,8,8,0,0,0-2.22-2.24,17.8,17.8,0,0,0,3.27-5.51,18.22,18.22,0,0,0,1-3.48l3.1.55a8.83,8.83,0,0,0-.36,1.14c-.36,1.13-.47,1.46-.8,2.32h6a15.57,15.57,0,0,0,2.27-.11,35.49,35.49,0,0,0-.14,4.81c0,3.15-.33,8-.63,10.23-.44,3.18-.94,4.7-1.85,5.42-.64.5-1.75.72-3.54.72-.72,0-1.58,0-2.57-.11a11.48,11.48,0,0,0-.78-3.1,21.43,21.43,0,0,0,3.62.36c1.25,0,1.55-.33,1.88-2.05A75.72,75.72,0,0,0,439,43.48ZM433.91,55a30.39,30.39,0,0,0-3.15-7l2.41-1.33a31.9,31.9,0,0,1,3.4,6.94Z"/><path class="cls-5" d="M452,54.9v1.57h-3.26a21,21,0,0,0,.14-2.85V42.9a18.64,18.64,0,0,0-.14-2.66,30.26,30.26,0,0,0,3.07.11h6.36v-.8a17.59,17.59,0,0,0-.17-3h3.43a16.1,16.1,0,0,0-.19,2.9v.91h6.55a30.25,30.25,0,0,0,3.18-.11,17.77,17.77,0,0,0-.14,2.63V53.62a19.62,19.62,0,0,0,.14,2.85H467.7V54.9h-6.44v3.73a22.08,22.08,0,0,0,.19,3.46H458a23.6,23.6,0,0,0,.2-3.46V54.9Zm0-11.78v3.09h6.17V43.12ZM452,49v3.18h6.17V49Zm9.24-2.74h6.44V43.12h-6.44Zm0,5.92h6.44V49h-6.44Z"/><path class="cls-5" d="M477.46,46.93a12.39,12.39,0,0,0,2.21.14h2.27a12,12,0,0,0,2.1-.14,29.55,29.55,0,0,0-.11,3v5.77a3.43,3.43,0,0,0,1.57,1.77c1.33.83,2.77,1,7.52,1A77.37,77.37,0,0,0,503.28,58a15.27,15.27,0,0,0-.83,3.29c-2.46.08-6.47.16-8.37.16-4.54,0-6.78-.16-8.22-.63a6.62,6.62,0,0,1-3.51-2.6,25.61,25.61,0,0,1-2.85,2.46c-.47.36-.63.5-.83.66l-.41.33-1.36-3.15A17.49,17.49,0,0,0,481,55.78V49.84h-1.68a9.39,9.39,0,0,0-1.88.14Zm2.62-10A33.34,33.34,0,0,1,484.92,42l-2.29,2.24A28.41,28.41,0,0,0,477.87,39Zm8.91,3.4a14.1,14.1,0,0,0-2.3.14v-3a12.51,12.51,0,0,0,2.3.13h3.95a12.27,12.27,0,0,0,2-.11,14,14,0,0,0-.06,1.5,18.91,18.91,0,0,0,1.83,8,16.58,16.58,0,0,0,6.08,7.11,13.35,13.35,0,0,0-1.82,2.9,20,20,0,0,1-4.43-4.31,19.6,19.6,0,0,1-3.09-6.55,16.18,16.18,0,0,1-3,6.74,17.56,17.56,0,0,1-3.73,3.79,16,16,0,0,0-2.18-2.4,15.22,15.22,0,0,0,3.65-3.54,18.18,18.18,0,0,0,3.07-6.58,21.29,21.29,0,0,0,.52-3.85Z"/><path class="cls-5" d="M516.77,49.28A3.29,3.29,0,1,1,513.48,46,3.27,3.27,0,0,1,516.77,49.28Z"/><path class="cls-5" d="M226.43,77a19,19,0,0,0,2.71.13c2.49,0,6.06-.13,8.21-.3a9.55,9.55,0,0,0,2.6-.44l1.8,2.29a12.08,12.08,0,0,0-1.6,1.36,82.14,82.14,0,0,1-7.61,6c1.38-.2,3.38-.39,6.72-.67,1.74-.14,3-.22,3.65-.27,1-.12,1.71-.17,2-.2a5,5,0,0,0,.92-.11L246,88h-.83a18.76,18.76,0,0,0-7.69,1.35c-2.24,1-3.76,2.71-3.76,4.2,0,1.8,2,2.8,5.56,2.8a10.93,10.93,0,0,0,2.63-.25l.14,3.51c-.31,0-.64,0-1,0-.19,0-.63,0-1.41,0h-.36a18.08,18.08,0,0,1-5.14-.78,5.17,5.17,0,0,1-3.9-4.83,5.33,5.33,0,0,1,1.49-3.6,9.52,9.52,0,0,1,3-2.1c-1.19.22-2.07.36-3.4.53s-2.26.27-3,.38c-1.11.14-2.6.33-4.45.61a8.68,8.68,0,0,0-1.27.28l-.33-3.38a2.79,2.79,0,0,0,.44,0c.55,0,1.71-.08,2.38-.16.13,0,.49-.06,1.05-.14a15.62,15.62,0,0,0,1.57-.22,53,53,0,0,0,8.49-6.81,66.38,66.38,0,0,1-7.71.61,16.65,16.65,0,0,0-1.77.17Z"/><path class="cls-5" d="M262.59,91.89c-1.57,3.56-3.34,5.19-5.61,5.19-3.15,0-5.42-3.2-5.42-7.65a11.89,11.89,0,0,1,3-8.05,12.44,12.44,0,0,1,9.51-3.87c6.64,0,10.95,4,10.95,10.26a10.63,10.63,0,0,1-6.72,10.31A18,18,0,0,1,264,99.24,8.89,8.89,0,0,0,262.32,96a15,15,0,0,0,5.5-1.52,7.76,7.76,0,0,0,3.84-6.92,6.84,6.84,0,0,0-3.4-6.13,6,6,0,0,0-2.79-.83A40,40,0,0,1,262.59,91.89ZM258.53,82a9.27,9.27,0,0,0-3.76,7.46c0,2.27,1,4.07,2.18,4.07.92,0,1.86-1.16,2.85-3.54a36.8,36.8,0,0,0,2.3-9.35A7.09,7.09,0,0,0,258.53,82Z"/><path class="cls-5" d="M283.5,89.32c0-.67,0-.67.08-3a19.46,19.46,0,0,1-2.32,3.18,19.11,19.11,0,0,0-1.44-3.26,22.41,22.41,0,0,0,4.89-7.63,17.51,17.51,0,0,0,1.08-3.73l3.13.94c-.23.63-.28.8-.56,1.57a28.06,28.06,0,0,1-1.93,4.57v15.4c0,1.3.05,2.29.13,3.34h-3.23a27.79,27.79,0,0,0,.17-3.37Zm9.26-3V96c0,.55.14.72.74.86A15.89,15.89,0,0,0,297,97c3.12,0,4.31-.11,4.92-.53a1.91,1.91,0,0,0,.66-1.27,20,20,0,0,0,.2-2.18,12.41,12.41,0,0,0,3,.88c-.33,3.15-.69,4.23-1.55,4.9-1.05.74-2.9,1-7.93,1s-6.47-.55-6.47-2.76V87.24l-.56.17a12.13,12.13,0,0,0-1.6.63l-.25-3.15a15,15,0,0,0,2.41-.55V81.08a17.34,17.34,0,0,0-.17-2.93h3.26a16.56,16.56,0,0,0-.16,2.82v2.46l2.85-.92V78a21.34,21.34,0,0,0-.17-2.77h3.21a18.87,18.87,0,0,0-.17,2.68V81.6l4-1.3a15.93,15.93,0,0,0,2.24-.83c0,.58,0,.8,0,1.5-.06,3.31-.25,7.13-.47,8.93-.28,2.07-1,2.68-3.1,2.68-.52,0-.83,0-1.52-.08a9.28,9.28,0,0,0-.77-2.83,11.63,11.63,0,0,0,1.88.25c.61,0,.72-.19.88-1.49a45,45,0,0,0,.22-5.11l-3.37,1.1v7.19a17,17,0,0,0,.17,2.77h-3.21a16.4,16.4,0,0,0,.17-2.85V85.36Z"/><path class="cls-5" d="M320.71,95.32a8.51,8.51,0,0,1-.22,2.35,2.44,2.44,0,0,1-2.55,1.6,8.59,8.59,0,0,1-5.22-2,4.06,4.06,0,0,1-1.52-3.13,5.91,5.91,0,0,1,2.38-4.09,14.55,14.55,0,0,1,4-2.35l0-4.26c-.23,0-.23,0-1.14.06-.41,0-.8,0-1.49,0l-1.52,0c-.36,0-.61,0-.69,0a4.79,4.79,0,0,0-.58,0l0-3.1a16.57,16.57,0,0,0,3.34.25c.28,0,.58,0,1,0,.67,0,.8,0,1.11,0V78.81a18.61,18.61,0,0,0-.17-3.18h3.46a16.64,16.64,0,0,0-.17,3v1.77a31.1,31.1,0,0,0,5.34-1l.11,3.1c-.5.08-1,.16-2.93.5-.91.16-1.47.24-2.52.36v3.59a19.26,19.26,0,0,1,5.64-.77c4.62,0,7.91,2.82,7.91,6.74A6.14,6.14,0,0,1,328,99.19a4.46,4.46,0,0,1-4.53-3.07,9.25,9.25,0,0,1-.47-3.54A11.65,11.65,0,0,0,326,91.36a8.94,8.94,0,0,0-.06,1.22,5.25,5.25,0,0,0,.39,2.43,1.91,1.91,0,0,0,1.74.94,2.84,2.84,0,0,0,2.79-3.07C330.88,90.5,329,89,326,89a17.62,17.62,0,0,0-5.31.91Zm-3.12-4.46c-2.08,1.11-3.29,2.33-3.29,3.32a1.5,1.5,0,0,0,.91,1.27,3.28,3.28,0,0,0,1.77.61c.47,0,.61-.25.61-1.16Zm15.31-5.58a23.38,23.38,0,0,0-5.53-6l2.6-1.75a23.74,23.74,0,0,1,5.48,5.67Z"/><path class="cls-5" d="M344.43,97.08a23.79,23.79,0,0,0,.17,3.41h-3.24a24.72,24.72,0,0,0,.17-3.43V79c0-1.47,0-2.24-.11-3.13a24.17,24.17,0,0,0,2.82.11h4.89a21.9,21.9,0,0,0,2.82-.11c-.05.89-.08,1.52-.08,2.6V83c0,1.25,0,1.88.08,2.49-.66,0-1.63-.08-2.54-.08h-5Zm0-17.44h4.73V78.2h-4.73Zm0,3.59h4.73V81.77h-4.73Zm14,11a15.92,15.92,0,0,0,.09,1.88c-.59,0-1.17-.08-2-.08h-6.16v1.85h-2.93a25.54,25.54,0,0,0,.13-2.68V89.23a18.63,18.63,0,0,0-.08-1.93c.61,0,1.25.08,2.05.08h6.83c.85,0,1.54,0,2.13-.08a16.66,16.66,0,0,0-.09,1.9Zm-8-.72h5.25V89.84h-5.25Zm14.26,3.62c0,1.53-.25,2.24-1,2.69a5.7,5.7,0,0,1-2.91.44c-.44,0-.74,0-2.57-.11a9.57,9.57,0,0,0-.77-2.93,31.86,31.86,0,0,0,3.4.25c.77,0,.91-.11.91-.72V85.39H356.4c-.91,0-1.9,0-2.51.08,0-.74.05-1.3.05-2.49V78.42c0-1,0-1.8-.08-2.6a23.36,23.36,0,0,0,2.82.11h5.25a24.74,24.74,0,0,0,2.85-.11,24.49,24.49,0,0,0-.14,3.1Zm-8-17.44h5.06V78.2h-5.06Zm0,3.59h5.06V81.77h-5.06Z"/><path class="cls-5" d="M376.34,84.26a28.78,28.78,0,0,1-4.43,2.32,10.79,10.79,0,0,0-1.6-2.82,27.77,27.77,0,0,0,7.05-4,19.26,19.26,0,0,0,4.34-4.62H385a18,18,0,0,0,4.65,4.67,25.92,25.92,0,0,0,7.05,3.79,14.64,14.64,0,0,0-1.52,3,26.84,26.84,0,0,1-4.51-2.43v1.93a20.72,20.72,0,0,0-2.49-.11h-9.45a21.52,21.52,0,0,0-2.38.11Zm-2.24,16.17a22.22,22.22,0,0,0,.16-2.93V91.06a25.92,25.92,0,0,0-.13-2.74,17.77,17.77,0,0,0,2.37.11h13.83a18.59,18.59,0,0,0,2.4-.11,18.89,18.89,0,0,0-.14,2.74v6.47a17,17,0,0,0,.17,2.9h-3.29V99H377.39v1.41Zm3.29-4.12h12.08v-5.2H377.39Zm10.75-13.13h.94a25.25,25.25,0,0,1-5.69-5.39A19.59,19.59,0,0,1,378,83.18h10.17Z"/><path class="cls-5" d="M423.45,98.41l-1.24.14c-2,.22-5.67.41-7.5.41-5.17,0-7.41-1-8.24-3.64-.38-1.25-.49-2.8-.49-7.55,0-.42,0-.53,0-2.68a37.29,37.29,0,0,0-5.11.49l-.22-3.23c.38,0,.66,0,.8,0s1.77-.09,4.51-.25c0-.45,0-.69,0-.86a27,27,0,0,0-.19-4.7h3.7a33.3,33.3,0,0,0-.24,5.39l8-.39c0-4.39,0-4.39-.17-5.47h3.46a12.7,12.7,0,0,0-.14,1.91v3.45a46.85,46.85,0,0,0,5.36-.25l.06,3.29a10.13,10.13,0,0,0-1.58-.08c-1,0-2.54,0-3.84,0a17.77,17.77,0,0,1-.72,5.86,3.37,3.37,0,0,1-3.37,2.07,9,9,0,0,1-4-.94c0-.55,0-.71,0-1.1a14.49,14.49,0,0,0-.19-2.27,8.54,8.54,0,0,0,3.62,1.36c.72,0,1-.36,1.19-1.44a23.9,23.9,0,0,0,.25-3.46c-4.21.17-4.21.17-8.05.39v.75c0,.13,0,.13,0,1.6v.58c0,1.44.09,4.45.14,5,.22,2.33,1.41,2.91,5.92,2.91a22.48,22.48,0,0,0,8-1.05Z"/></g></g></svg>