<svg xmlns="http://www.w3.org/2000/svg" viewBox="0 0 36.41 36.42"><defs><style>.cls-1{fill:#fff;}</style></defs><g id="Layer_2" data-name="Layer 2"><g id="レイヤー_1" data-name="レイヤー 1"><path class="cls-1" d="M.05,4.25c0-.34,0-.67,0-1A1.51,1.51,0,0,1,1.25,1.77C3.75,1.18,6.24.6,8.75,0A1.7,1.7,0,0,1,10.7,1.17c.59,1.42,1.21,2.83,1.81,4.25.49,1.15,1,2.3,1.47,3.45A1.63,1.63,0,0,1,13.43,11Q11.5,12.6,9.55,14.18a.48.48,0,0,0-.15.72,25.86,25.86,0,0,0,3.4,5.24,26.4,26.4,0,0,0,7.46,6.21c.45.25.91.47,1.36.72.24.14.38.1.56-.12,1.08-1.34,2.18-2.67,3.28-4a1.62,1.62,0,0,1,2-.53c1.49.61,3,1.26,4.45,1.89l3.26,1.4a1.73,1.73,0,0,1,1.13,2.2l-1.62,7a1.68,1.68,0,0,1-1.89,1.5,33.14,33.14,0,0,1-30.14-20A29.92,29.92,0,0,1,.31,7.53C.19,6.44.1,5.34,0,4.25Z"/></g></g></svg>