<svg xmlns="http://www.w3.org/2000/svg" viewBox="0 0 67.9 89.11"><defs><style>.cls-1,.cls-2{fill:#f45b5b;stroke:#fff;stroke-width:5.22px;}.cls-1{stroke-miterlimit:10;}.cls-2{stroke-linecap:round;stroke-linejoin:round;}</style></defs><g id="Layer_2" data-name="Layer 2"><g id="レイヤー_1" data-name="レイヤー 1"><polyline class="cls-1" points="12.75 86.5 2.61 86.5 2.61 17.57 54.68 17.57 54.68 86.5 20.89 86.5"/><line class="cls-1" x1="14.8" y1="27.36" x2="46.7" y2="27.36"/><line class="cls-1" x1="14.8" y1="38.64" x2="41.58" y2="38.64"/><line class="cls-1" x1="14.8" y1="49.93" x2="37.52" y2="49.93"/><line class="cls-1" x1="14.8" y1="61.22" x2="46.7" y2="61.22"/><line class="cls-1" x1="30.75" y1="73.1" x2="44.89" y2="73.1"/><path class="cls-2" d="M46.8,50.09l-6.51,4.17-1.8-7.72,18.38-43a1.94,1.94,0,0,1,2.61-.72L63.9,4.71a1.94,1.94,0,0,1,1.29,2.38Z"/><line class="cls-2" x1="54.71" y1="11.17" x2="61.99" y2="14.28"/></g></g></svg>