<svg xmlns="http://www.w3.org/2000/svg" viewBox="0 0 455.34 50.95"><defs><style>.cls-1{isolation:isolate;}.cls-2{fill:#000333;}.cls-3{mix-blend-mode:multiply;}.cls-4{fill:#fff;}.cls-5{fill:#3874b6;}.cls-6{fill:#3fa9f5;}</style></defs><g class="cls-1"><g id="Layer_2" data-name="Layer 2"><g id="レイヤー_1" data-name="レイヤー 1"><path class="cls-2" d="M78.71,35.56a22.48,22.48,0,0,0-1.24-4.29L74.8,23.55c0-.14-.9-2.84-1-3.07-.32-1-.32-1-.46-1.45.17,1.83.29,4.21.29,5.74v6.3a31.55,31.55,0,0,0,.23,4.49H68.16a32.66,32.66,0,0,0,.23-4.49V16a41.28,41.28,0,0,0-.23-4.53h7.65a21.74,21.74,0,0,0,1.11,4.09L81.27,28l4.32-12.5a19.4,19.4,0,0,0,1.07-4.09h7.69A34.36,34.36,0,0,0,94.12,16V31.07a29.37,29.37,0,0,0,.23,4.49H88.64a32.1,32.1,0,0,0,.23-4.49V24.74c0-.69.08-2.87.14-3.77.09-1.53.09-1.53.12-2-.64,2.26-.93,3.31-1.31,4.35L85,31.3a26.68,26.68,0,0,0-1.25,4.26Z"/><path class="cls-2" d="M117,35.56a25,25,0,0,0-.7-3.13L115.55,30h-8.27l-.78,2.46a16.94,16.94,0,0,0-.73,3.13H99a27.62,27.62,0,0,0,1.4-3.54l6.26-17.46a18.36,18.36,0,0,0,.93-3.13h7.57a22.6,22.6,0,0,0,1,3.13L122.42,32c.55,1.54,1,2.73,1.39,3.54Zm-5.66-19.17-2.7,8.7h5.46Z"/><path class="cls-2" d="M150.81,12.53a23.62,23.62,0,0,0-1.22,2.7,51.21,51.21,0,0,1-3.85,7.66A61.83,61.83,0,0,1,152.06,29l-3.95,4.12a43.79,43.79,0,0,0-5.48-6,34.86,34.86,0,0,1-11.22,9.23A14.84,14.84,0,0,0,127.75,32,29.29,29.29,0,0,0,135.61,27a29.24,29.24,0,0,0,3.11-3.22,60.58,60.58,0,0,0-7.55-5.16l3.57-3.51a64.76,64.76,0,0,1,6.85,4.55,31.69,31.69,0,0,0,3.77-8.91Z"/><path class="cls-2" d="M173.14,23.53A14.76,14.76,0,0,1,171.05,31c-1.51,2.52-3.88,4.35-7.77,5.89a14.12,14.12,0,0,0-3.4-4.58c5.23-1.51,7.58-4.15,7.84-8.79h-5.95a34.67,34.67,0,0,0-4.38.14V18.8a26,26,0,0,0,4.47.23H178a28.8,28.8,0,0,0,4.62-.2v4.84a40,40,0,0,0-4.53-.14Zm-.64-12a36.59,36.59,0,0,0,4.3-.18c-.09-.17-.12-.2-.24-.41l2.35-.75A18.87,18.87,0,0,1,181,14.88l-2.49.9a22.36,22.36,0,0,0-1.69-4.29v4.76c-.87-.09-1-.09-4.26-.15h-7.72a41.26,41.26,0,0,0-4.52.15V11.34a23.07,23.07,0,0,0,4.61.24Zm9.78,2.92a20.81,20.81,0,0,0-2-4.61l2.26-.78a19.59,19.59,0,0,1,2,4.5Z"/><path class="cls-2" d="M209.54,17.84a7.74,7.74,0,0,0-1,1,32.28,32.28,0,0,1-5.36,4.72v8.94a29.73,29.73,0,0,0,.17,4h-5.16a27.33,27.33,0,0,0,.2-4V26.46a35.31,35.31,0,0,1-7.57,3.42,14.38,14.38,0,0,0-2.47-4.12,36.69,36.69,0,0,0,11.75-5.51,21.07,21.07,0,0,0,5.4-5.19Z"/><path class="cls-2" d="M224.44,15.64c.09-1.14.15-2.82.15-3.72a7.85,7.85,0,0,0-.09-1.45l5.45.15a22.23,22.23,0,0,0-.32,3.51c0,.78,0,.78-.08,1.48h6.32a4.19,4.19,0,0,0,1.94-.32l2.27,2a3.62,3.62,0,0,0-.41,2.15c-.2,6.2-.64,11.05-1.22,13-.84,2.7-2.23,3.63-5.45,3.63a34.57,34.57,0,0,1-3.8-.23,14.34,14.34,0,0,0-1-5.11,16.44,16.44,0,0,0,3.77.58c1.4,0,1.74-.46,2.12-3a66.85,66.85,0,0,0,.55-8.09h-5.54a25,25,0,0,1-.43,2.9c-1.28,5.86-4,9.63-9.92,13.52A16.74,16.74,0,0,0,215,32.17c3.86-2,6.1-4.09,7.55-7a15.58,15.58,0,0,0,1.45-5h-3.63a30.59,30.59,0,0,0-3.91.17l0-5a21.87,21.87,0,0,0,4,.24Z"/><path class="cls-2" d="M255.12,11.63c-.11,1-.11,1-.32,6.73-.17,6.07-.75,9.28-2.14,12.45a19.48,19.48,0,0,1-4,5.8,15.66,15.66,0,0,0-4.15-4.06,13,13,0,0,0,3.45-4.62c1.36-2.84,1.83-6.43,1.83-13.95a20.71,20.71,0,0,0-.12-2.67Zm8.21-.46a21.34,21.34,0,0,0-.23,3.36L263,29.73a11.16,11.16,0,0,0,3.48-3.19,14.75,14.75,0,0,0,2.26-5,18.89,18.89,0,0,0,3.86,3.83,17.89,17.89,0,0,1-5,7.37,17.44,17.44,0,0,1-6.09,3.31,5.81,5.81,0,0,0-1.42.61l-2.5-2.62a6.32,6.32,0,0,0,.32-2.43L258,14.48V13.43a16.65,16.65,0,0,0-.12-2.26Z"/><path class="cls-2" d="M287.78,23.47a20,20,0,0,0-1.71,4.38A16.51,16.51,0,0,1,284,24.51c0,.9.05,1.6.05,2.9v6.07a33,33,0,0,0,.18,3.74h-4.61a36.71,36.71,0,0,0,.17-3.74V30c0-1.28,0-2.7.09-3.46a15.82,15.82,0,0,1-1.25,2.82,19.17,19.17,0,0,1-1.36,2.2,22.7,22.7,0,0,0-1.68-4.9,21.05,21.05,0,0,0,3.82-7.83h-.92a11.34,11.34,0,0,0-2.15.14V14.62a10.69,10.69,0,0,0,2.2.15h1.22V12.85a18,18,0,0,0-.17-3h4.64a20.59,20.59,0,0,0-.18,3v1.92h1.25a10.53,10.53,0,0,0,1.77-.15v4.29a12.88,12.88,0,0,0-1.71-.11h-1.1a14.69,14.69,0,0,0,3.51,4.67V13.55c0-.93,0-1.68-.12-3,1,.09,1.86.12,2.9.12h8.76c1.16,0,2.12-.06,2.82-.12-.09,1-.12,1.89-.12,3V33.27c0,1.42.06,2.79.17,3.83h-4.55V35.82h-5.48v1.31H287.6a37.93,37.93,0,0,0,.18-3.86Zm4.38-5.66h5.48V14.74h-5.48Zm0,7h5.48V21.64h-5.48Zm0,7h5.48V28.63h-5.48Z"/><path class="cls-2" d="M317.68,18.45a13.28,13.28,0,0,0-2.3-.09h-6.06a16.76,16.76,0,0,0-2.35.12v-4a12.56,12.56,0,0,0,2.35.15h6a22.08,22.08,0,0,0,2.35-.09v.09a16,16,0,0,0,1.1-3.71l3.65.78a19.91,19.91,0,0,1-1.94,5.57l-2.81-1.05Zm16.59,6.12a24.78,24.78,0,0,1-2.7,5.4,18.21,18.21,0,0,0-3-1.72c1.11,2.18,3.08,3.72,6.12,4.82a18.53,18.53,0,0,0-2.23,4.35,15.18,15.18,0,0,1-6.87-6.32,10.42,10.42,0,0,1-3.25,4.26,12.5,12.5,0,0,1-3.72,2.15,15.78,15.78,0,0,0-1.45-3.34v.67a13.35,13.35,0,0,0,.06,1.94h-3.77v-.84h-1.65v1.22h-4.15c.09-1,.14-1.94.14-2.84V29.59a16.37,16.37,0,0,0-.11-2.18,18.93,18.93,0,0,0,2.06.09h5.8a9.26,9.26,0,0,0,1.62-.09,18.56,18.56,0,0,0,1.51-4.06A13.13,13.13,0,0,0,317,20.86v1.68a12.27,12.27,0,0,0-1.63-.06h-5.74a12.72,12.72,0,0,0-1.71.06V19.26a13.46,13.46,0,0,0,1.71.06h5.74a11.65,11.65,0,0,0,1.63-.06v1.42a8.59,8.59,0,0,0,4.78-3.19c1.14-1.53,1.6-3.36,1.6-6.23A6.1,6.1,0,0,0,323.3,10h4.47a8.35,8.35,0,0,0-.12,1.57,11.84,11.84,0,0,0,.44,3.42,15.73,15.73,0,0,0,2.23-4.24l3.86,1.43a26.52,26.52,0,0,1-2.78,5.07,18,18,0,0,0-3-1.59A7.24,7.24,0,0,0,330,17.9a11.06,11.06,0,0,0,4.53,2.44,17.27,17.27,0,0,0-2,3.59ZM307.93,10.41a18.74,18.74,0,0,0,2.61.12h3.89a19,19,0,0,0,2.61-.12v3.4c-.78-.06-1.31-.09-2.61-.09h-3.89c-1.22,0-1.86,0-2.61.09Zm0,13c.49,0,.84.06,1.71.06h5.71a11.74,11.74,0,0,0,1.66-.06v3.28c-.35,0-.84-.06-1.71-.06h-5.72c-.81,0-1.19,0-1.65.06Zm3.71,9.17h1.83V30.6h-1.83Zm16.07-10.71a9.93,9.93,0,0,0-.09,1.45,13.17,13.17,0,0,0,.67,4.33,17,17,0,0,0,2.06-4.36,16,16,0,0,1-2.75-2.14,8.48,8.48,0,0,1-2-2.82,11,11,0,0,1-5.28,5.49l1.92.55A27.47,27.47,0,0,1,320,30.17l-2.79-1.25v4.41a8.56,8.56,0,0,0,5-4c.81-1.51,1.16-3.37,1.16-6.27a8.86,8.86,0,0,0-.09-1.25Z"/><path class="cls-2" d="M354.28,16.13V14.21a20.58,20.58,0,0,0-.15-3.24h5.22a38.8,38.8,0,0,0-.14,5.16h1.13a26.17,26.17,0,0,0,4.18-.2v5a40.32,40.32,0,0,0-4.09-.15h-1.28c-.06,2.29-.09,2.93-.2,4-.44,3.92-1.74,6.56-4.3,8.76a17.36,17.36,0,0,1-6,3.28,14.41,14.41,0,0,0-3.16-4.44,15.48,15.48,0,0,0,5.6-2.55c2-1.57,2.81-3.45,3-6.7,0-.52,0-.73.06-2.38h-6.12V24a28.25,28.25,0,0,0,.11,3h-5.3a22.6,22.6,0,0,0,.17-3.05V20.74H342a33.2,33.2,0,0,0-4.09.15v-5a26,26,0,0,0,4.17.2h1V14a20.16,20.16,0,0,0-.17-3.07h5.3a22,22,0,0,0-.11,3v2.23Z"/><path class="cls-2" d="M368.89,20.65a39.76,39.76,0,0,0,5.95.27H388.7a46.16,46.16,0,0,0,5.95-.27v5.6a58,58,0,0,0-6-.17H374.86c-3.24,0-4.2,0-6,.17Z"/><path class="cls-2" d="M422.31,18.94c-.69.35-.75.38-1.45.7a52.07,52.07,0,0,1-13.81,4.5v3.24a6.72,6.72,0,0,0,.12,2.24c.17.55.55.78,1.39.9a27,27,0,0,0,3.08.17c1.65,0,3.91-.12,5.65-.29a24.8,24.8,0,0,0,5-.93l.21,5.37c-.7,0-1.54.06-3,.2-2.9.26-6.15.44-8.47.44-4,0-6-.35-7.31-1.28a4.31,4.31,0,0,1-1.63-3.13A24.91,24.91,0,0,1,402,28V15.38a28.62,28.62,0,0,0-.18-3.86h5.43a22.06,22.06,0,0,0-.18,3.88v3.92a40.44,40.44,0,0,0,11.06-4.15,18.13,18.13,0,0,0-2-3.51l2.87-.93a19.5,19.5,0,0,1,2.41,4.44l-1.45.52Zm.76-9.51a20.63,20.63,0,0,1,2.4,4.32l-2.75,1a22.81,22.81,0,0,0-2.38-4.44Z"/><path class="cls-2" d="M451.28,36.35A46.37,46.37,0,0,0,443,28.11a31.54,31.54,0,0,1-10.68,8A15.14,15.14,0,0,0,429,31.47a27.18,27.18,0,0,0,9.4-5.86,23.26,23.26,0,0,0,5.83-8.52l-7.54.11a35.57,35.57,0,0,0-4.61.29L432,12.33a22.42,22.42,0,0,0,3.05.2c.23,0,.78,0,1.62,0l9.92-.14a5.38,5.38,0,0,0,2.33-.32l2.55,2.61a4.58,4.58,0,0,0-1.05,1.71,33.87,33.87,0,0,1-4.26,7.83,68.36,68.36,0,0,1,9.22,7.86Z"/><g class="cls-3"><path class="cls-4" d="M48.24,8.62c-2.64-2.78-7.58-4-13.34-3.24a5.46,5.46,0,1,0-9.2,4.06,12.91,12.91,0,0,0-3.35,2.63A8.24,8.24,0,0,0,20.13,12a5.46,5.46,0,0,0-10.92.13,5.21,5.21,0,0,0,3.47,5c-.39.29-.26.21-.81.63s-.76.6-1.18,1l-.95.93C3.07,27-3,38.22,1.67,45.6A11.58,11.58,0,0,0,10,50.76a17.24,17.24,0,0,0,2.61.19c8,0,17.56-5,24-10.38,8.57-7.2,13.93-15.94,14.35-23.4C51.13,13.64,50.2,10.68,48.24,8.62ZM9.06,39.46c-1.31-1.6-1.1-4.59.4-8.1a63.93,63.93,0,0,0,.77,9.09A4.33,4.33,0,0,1,9.06,39.46ZM35.58,11.07c3.16-.34,5.75.19,7,1.45,1.56,1.65.86,5.69-1.6,10.2C40,17.62,38.14,13.54,35.58,11.07ZM29,34.05c0,.24,0,.48-.05.72L28.85,36c-.38.27-.76.52-1.15.77a34.39,34.39,0,0,1-4.06,2.28l-.05-.15h0C20.9,30,22,21.67,24.23,17,27,19.46,29.38,25.82,29,34.05Z"/><path class="cls-5" d="M35.11,38.81C24.55,47.68,9,52.78,3.61,44.36.05,38.8,4.2,29.2,11.44,21.25a21.6,21.6,0,0,0-1.11,3.91C6,31.37,4.57,37.59,7.28,40.92a7.22,7.22,0,0,0,3.52,2.27c3.37,1.07,8.08.49,13.08-1.73A35,35,0,0,0,29,38.69,40.34,40.34,0,0,0,32.6,36a44.85,44.85,0,0,0,8.47-9.17c4.39-6.38,6-12.85,3.12-15.93C42.24,8.88,38.38,8.19,33.76,9a5,5,0,0,0,.59-1.23c5.49-.87,10,.1,12.22,2.42C51.27,15.15,48.29,27.73,35.11,38.81Z"/><path class="cls-6" d="M21.39,39.56c.1.32.19.65.3,1a20.49,20.49,0,0,1-9,1.41c-.05-.24,0-.41-.05-.66-1.44-8.7-1.35-16.33,1.25-21.4,1.34-2.62,3.92-5.18,6.1-5.55l.24,0a6.21,6.21,0,0,1,2.69.27C19.67,19.8,18.39,29.62,21.39,39.56Z"/><path class="cls-6" d="M39.1,26.73a42.74,42.74,0,0,1-7.73,8.13l-.13.1c0-.27,0-.54.05-.81.46-9.9-2.84-18.29-7.61-20.12,1.94-2.23,4.14-3.46,6.24-3.3C34.84,11.11,38.49,17.86,39.1,26.73Z"/><circle class="cls-6" cx="14.67" cy="12.14" r="3.16"/><circle class="cls-6" cx="29.44" cy="5.46" r="3.16"/></g></g></g></g></svg>