<svg xmlns="http://www.w3.org/2000/svg" viewBox="0 0 251.76 39.51"><defs><style>.cls-1{isolation:isolate;}.cls-2{fill:#000333;}.cls-3{mix-blend-mode:multiply;}.cls-4{fill:#fff;}.cls-5{fill:#3874b6;}.cls-6{fill:#3fa9f5;}</style></defs><g class="cls-1"><g id="Layer_2" data-name="Layer 2"><g id="レイヤー_1" data-name="レイヤー 1"><path class="cls-2" d="M58.37,27.34A12.52,12.52,0,0,0,57.68,25l-1.47-4.26c0-.08-.5-1.57-.55-1.7-.17-.58-.17-.58-.25-.8.09,1,.16,2.32.16,3.17v3.47a18.19,18.19,0,0,0,.12,2.48H52.54a17.06,17.06,0,0,0,.13-2.48V16.52A21.93,21.93,0,0,0,52.54,14h4.23a12,12,0,0,0,.6,2.25l2.41,6.9,2.38-6.9A10.45,10.45,0,0,0,62.75,14H67a19.72,19.72,0,0,0-.12,2.49v8.34A16.92,16.92,0,0,0,67,27.34H63.84A16.72,16.72,0,0,0,64,24.86V21.37c0-.38,0-1.58.08-2.08,0-.85,0-.85.06-1.09-.35,1.25-.51,1.83-.72,2.41L61.84,25a14.76,14.76,0,0,0-.69,2.35Z"/><path class="cls-2" d="M78.3,27.34a11.88,11.88,0,0,0-.38-1.72l-.43-1.36H72.93l-.44,1.36a9.86,9.86,0,0,0-.4,1.72H68.35a16.49,16.49,0,0,0,.77-1.95l3.45-9.63A10,10,0,0,0,73.09,14h4.17a14.69,14.69,0,0,0,.55,1.73l3.47,9.63c.31.85.56,1.51.77,1.95ZM75.18,16.76l-1.49,4.81h3Z"/><path class="cls-2" d="M95.75,14.64a11.16,11.16,0,0,0-.68,1.48,26.54,26.54,0,0,1-2.13,4.23,33,33,0,0,1,3.49,3.36L94.26,26a25.2,25.2,0,0,0-3-3.28A19.17,19.17,0,0,1,85,27.79a8.27,8.27,0,0,0-2-2.41,16.18,16.18,0,0,0,4.34-2.79,15.8,15.8,0,0,0,1.71-1.78A34.22,34.22,0,0,0,84.91,18l2-1.93a37.32,37.32,0,0,1,3.78,2.51,17.69,17.69,0,0,0,2.08-4.91Z"/><path class="cls-2" d="M106.86,20.7a8.13,8.13,0,0,1-1.15,4.13,8,8,0,0,1-4.29,3.25,7.72,7.72,0,0,0-1.87-2.53c2.88-.83,4.18-2.29,4.32-4.85h-3.28a20.35,20.35,0,0,0-2.42.08V18.09a13.71,13.71,0,0,0,2.47.13h8.91a16.37,16.37,0,0,0,2.55-.11v2.67a21.36,21.36,0,0,0-2.5-.08Zm-.35-6.59a19.23,19.23,0,0,0,2.37-.1l-.13-.22,1.3-.42a10.51,10.51,0,0,1,1.17,2.56l-1.38.5a12.31,12.31,0,0,0-.93-2.37v2.62c-.48,0-.57,0-2.35-.08H102.3a24.51,24.51,0,0,0-2.49.08V14a13.23,13.23,0,0,0,2.54.13Zm5.4,1.61a11.65,11.65,0,0,0-1.12-2.54l1.24-.43a10.69,10.69,0,0,1,1.13,2.48Z"/><path class="cls-2" d="M125.75,17.56a4.68,4.68,0,0,0-.56.56,17.85,17.85,0,0,1-3,2.61v4.93a15.74,15.74,0,0,0,.1,2.21h-2.85a14.72,14.72,0,0,0,.11-2.21V22.32a19.53,19.53,0,0,1-4.17,1.89,8.25,8.25,0,0,0-1.36-2.28,20.06,20.06,0,0,0,6.48-3,11.73,11.73,0,0,0,3-2.86Z"/><path class="cls-2" d="M132.77,16.35c0-.63.08-1.55.08-2.05a4.3,4.3,0,0,0,0-.8l3,.08a11.82,11.82,0,0,0-.18,1.94,6.64,6.64,0,0,1,0,.81h3.49a2.43,2.43,0,0,0,1.08-.17l1.24,1.08a2.1,2.1,0,0,0-.22,1.19,37.66,37.66,0,0,1-.67,7.15c-.47,1.49-1.23,2-3,2a18.62,18.62,0,0,1-2.1-.12,7.78,7.78,0,0,0-.54-2.82,9,9,0,0,0,2.08.32c.77,0,1-.26,1.17-1.65a37,37,0,0,0,.3-4.46h-3.06a11.16,11.16,0,0,1-.24,1.6c-.7,3.23-2.22,5.31-5.47,7.45a9.3,9.3,0,0,0-2.08-2.43,8.69,8.69,0,0,0,4.16-3.87,8.39,8.39,0,0,0,.8-2.74h-2a16.28,16.28,0,0,0-2.16.1l0-2.74a12.7,12.7,0,0,0,2.23.13Z"/><path class="cls-2" d="M148.5,14.14c-.07.54-.07.54-.18,3.71-.1,3.35-.42,5.12-1.19,6.87a10.47,10.47,0,0,1-2.22,3.2,8.69,8.69,0,0,0-2.29-2.24,7.26,7.26,0,0,0,1.91-2.55c.75-1.56,1-3.55,1-7.69a11.61,11.61,0,0,0-.06-1.48Zm4.53-.26a10.5,10.5,0,0,0-.13,1.86l-.08,8.39a6.4,6.4,0,0,0,1.92-1.76A8.3,8.3,0,0,0,156,19.63a10.36,10.36,0,0,0,2.13,2.11,9.9,9.9,0,0,1-2.77,4.07A9.69,9.69,0,0,1,152,27.63a3.53,3.53,0,0,0-.79.34l-1.38-1.44a3.41,3.41,0,0,0,.18-1.35l.08-9.47v-.58a11.37,11.37,0,0,0-.06-1.25Z"/><path class="cls-2" d="M165.31,20.67a11.14,11.14,0,0,0-.94,2.42,9.31,9.31,0,0,1-1.14-1.84c0,.49,0,.88,0,1.6v3.34a17.45,17.45,0,0,0,.1,2.07h-2.55a17.92,17.92,0,0,0,.1-2.07V24.26c0-.71,0-1.49.05-1.91a8.47,8.47,0,0,1-.69,1.55,9.87,9.87,0,0,1-.75,1.22,12.31,12.31,0,0,0-.93-2.71,11.4,11.4,0,0,0,2.11-4.32h-.51a6.2,6.2,0,0,0-1.18.08V15.79a6.35,6.35,0,0,0,1.21.08h.67V14.81a9.63,9.63,0,0,0-.09-1.66h2.56a10.65,10.65,0,0,0-.1,1.66v1.06H164a5.89,5.89,0,0,0,1-.08v2.37a6.35,6.35,0,0,0-1-.07h-.61a8.27,8.27,0,0,0,1.94,2.58V15.2c0-.52,0-.93-.06-1.67.56.05,1,.07,1.6.07h4.83c.64,0,1.17,0,1.56-.07-.05.55-.07,1-.07,1.65v10.9a18.54,18.54,0,0,0,.1,2.11h-2.52v-.7h-3v.72h-2.51c.06-.61.09-1.39.09-2.13Zm2.42-3.12h3v-1.7h-3Zm0,3.86h3V19.66h-3Zm0,3.84h3V23.52h-3Z"/><path class="cls-2" d="M180.61,17.9a7.28,7.28,0,0,0-1.27,0H176a9.11,9.11,0,0,0-1.3.07V15.74a7.6,7.6,0,0,0,1.3.08h3.31c.67,0,.93,0,1.3-.05v.05a9,9,0,0,0,.61-2.05l2,.43a10.76,10.76,0,0,1-1.07,3.08l-1.55-.58Zm9.15,3.38a13.61,13.61,0,0,1-1.49,3,10,10,0,0,0-1.64-1A5.6,5.6,0,0,0,190,26a10.3,10.3,0,0,0-1.23,2.4A8.43,8.43,0,0,1,185,24.88a5.63,5.63,0,0,1-1.8,2.35,6.87,6.87,0,0,1-2,1.19,8.94,8.94,0,0,0-.8-1.84v.36a8.37,8.37,0,0,0,0,1.08h-2.08v-.47h-.92v.67h-2.28c0-.54.08-1.07.08-1.56V24.05a8.82,8.82,0,0,0-.07-1.2c.35,0,.61,0,1.14,0h3.2a6,6,0,0,0,.9,0,11.16,11.16,0,0,0,.83-2.24,6.88,6.88,0,0,0-.91-1.38v.93a7.62,7.62,0,0,0-.9,0h-3.17a7.64,7.64,0,0,0-.94,0V18.35a8.09,8.09,0,0,0,.94,0h3.17a7.18,7.18,0,0,0,.9,0v.78a4.77,4.77,0,0,0,2.64-1.76,5.44,5.44,0,0,0,.88-3.44,3.33,3.33,0,0,0-.07-.7h2.47a4.47,4.47,0,0,0-.07.86,6.53,6.53,0,0,0,.24,1.89,8.69,8.69,0,0,0,1.24-2.34l2.13.79a15.1,15.1,0,0,1-1.54,2.8,9.79,9.79,0,0,0-1.68-.88,3.92,3.92,0,0,0,.91,1.25,6,6,0,0,0,2.5,1.34,9.6,9.6,0,0,0-1.11,2Zm-14.53-7.81a12.53,12.53,0,0,0,1.44.06h2.14a12.85,12.85,0,0,0,1.45-.06v1.87c-.44,0-.73-.05-1.45-.05h-2.14c-.67,0-1,0-1.44.05Zm0,7.15c.27,0,.46,0,.94,0h3.15a7.2,7.2,0,0,0,.92,0v1.81c-.2,0-.47,0-.95,0h-3.15c-.45,0-.66,0-.91,0Zm2,5.06h1V24.61h-1Zm8.87-5.91a6,6,0,0,0,0,.8,7.18,7.18,0,0,0,.37,2.39,9.4,9.4,0,0,0,1.14-2.4,8.44,8.44,0,0,1-1.52-1.19A4.51,4.51,0,0,1,185,17.82a6.12,6.12,0,0,1-2.91,3l1.05.3a15,15,0,0,1-1.28,3.22l-1.53-.69v2.43a4.71,4.71,0,0,0,2.76-2.19,7.05,7.05,0,0,0,.64-3.46,5.32,5.32,0,0,0,0-.69Z"/><path class="cls-2" d="M199.6,16.62V15.56a11,11,0,0,0-.08-1.79h2.88a22,22,0,0,0-.08,2.85H203a14.84,14.84,0,0,0,2.3-.11v2.74a21.29,21.29,0,0,0-2.26-.08h-.7c0,1.26,0,1.61-.11,2.22a6.83,6.83,0,0,1-2.37,4.83A9.71,9.71,0,0,1,196.5,28a8,8,0,0,0-1.75-2.45,8.54,8.54,0,0,0,3.09-1.4,4.6,4.6,0,0,0,1.68-3.7c0-.29,0-.4,0-1.31h-3.37V21a14.25,14.25,0,0,0,.06,1.65h-2.93a12.49,12.49,0,0,0,.1-1.68V19.17h-.6a18.82,18.82,0,0,0-2.25.08V16.51a14.84,14.84,0,0,0,2.3.11h.55V15.45a10.66,10.66,0,0,0-.1-1.69h2.93a12.19,12.19,0,0,0-.06,1.63v1.23Z"/><path class="cls-2" d="M206.46,19.12a23.16,23.16,0,0,0,3.28.14h7.65a27,27,0,0,0,3.29-.14v3.09a30.69,30.69,0,0,0-3.3-.1h-7.62c-1.79,0-2.32,0-3.3.1Z"/><path class="cls-2" d="M234.74,18.17l-.8.39A29,29,0,0,1,226.32,21v1.79a4,4,0,0,0,.06,1.23c.1.31.31.44.77.5a15,15,0,0,0,1.7.1c.91,0,2.16-.07,3.12-.16a13.59,13.59,0,0,0,2.75-.52l.11,3c-.38,0-.84,0-1.64.12-1.6.14-3.4.24-4.68.24-2.19,0-3.3-.2-4-.71a2.34,2.34,0,0,1-.9-1.73,12.55,12.55,0,0,1-.06-1.69v-7a15,15,0,0,0-.1-2.12h3a12.36,12.36,0,0,0-.1,2.14v2.16a22,22,0,0,0,6.1-2.29,9.79,9.79,0,0,0-1.09-1.93l1.58-.52a10.87,10.87,0,0,1,1.33,2.45l-.8.29Zm.41-5.25a11.11,11.11,0,0,1,1.33,2.39l-1.52.56a12.75,12.75,0,0,0-1.31-2.45Z"/><path class="cls-2" d="M249.52,27.78a25.68,25.68,0,0,0-4.59-4.55A17.38,17.38,0,0,1,239,27.62a8.52,8.52,0,0,0-1.79-2.53,14.91,14.91,0,0,0,5.18-3.24,12.75,12.75,0,0,0,3.22-4.7l-4.16.06a19.84,19.84,0,0,0-2.55.16l-.08-2.85a12,12,0,0,0,1.68.12l.9,0,5.47-.08a3,3,0,0,0,1.28-.18l1.41,1.44a2.51,2.51,0,0,0-.57.95,18.78,18.78,0,0,1-2.36,4.32,36.46,36.46,0,0,1,5.09,4.34Z"/><g class="cls-3"><path class="cls-4" d="M37.4,6.68c-2-2.15-5.87-3.07-10.34-2.51a4.24,4.24,0,1,0-7.13,3.15,10.22,10.22,0,0,0-2.6,2,6.6,6.6,0,0,0-1.72,0,4.24,4.24,0,0,0-8.47.1,4,4,0,0,0,2.7,3.9c-.31.23-.21.17-.63.49s-.59.47-.92.76l-.74.72C2.38,21-2.37,29.63,1.3,35.36a9,9,0,0,0,6.44,4,13.43,13.43,0,0,0,2,.15c6.21,0,13.62-3.86,18.61-8C35,25.88,39.17,19.1,39.49,13.32A8.6,8.6,0,0,0,37.4,6.68ZM7,30.6c-1-1.24-.86-3.56.31-6.28a50,50,0,0,0,.59,7.05A3.22,3.22,0,0,1,7,30.6Zm20.56-22C30,8.32,32.05,8.73,33,9.71c1.21,1.28.67,4.41-1.24,7.91C31.05,13.66,29.58,10.5,27.59,8.58ZM22.48,26.41a5.07,5.07,0,0,1,0,.55l-.08,1-.89.59a26.92,26.92,0,0,1-3.15,1.77s0-.08,0-.11h0c-2.08-6.9-1.25-13.35.5-17C21,15.09,22.78,20,22.48,26.41Z"/><path class="cls-5" d="M27.22,30.09C19,37,7,40.93,2.8,34.4,0,30.09,3.26,22.64,8.87,16.48a17.11,17.11,0,0,0-.86,3c-3.33,4.82-4.47,9.64-2.36,12.22a5.59,5.59,0,0,0,2.72,1.76c2.62.83,6.27.38,10.15-1.34A28.36,28.36,0,0,0,22.46,30,34.19,34.19,0,0,0,25.28,28a35,35,0,0,0,6.57-7.11c3.4-4.95,4.69-10,2.42-12.36C32.75,6.88,29.76,6.35,26.18,7a3.86,3.86,0,0,0,.46-1c4.25-.67,7.77.08,9.47,1.88C39.76,11.75,37.44,21.51,27.22,30.09Z"/><path class="cls-6" d="M16.59,30.67c.07.26.15.51.23.75a15.91,15.91,0,0,1-6.94,1.1c0-.19,0-.32,0-.51-1.12-6.76-1.05-12.67,1-16.6,1-2,3-4,4.73-4.3l.19,0a4.94,4.94,0,0,1,2.08.21C15.25,15.35,14.26,23,16.59,30.67Z"/><path class="cls-6" d="M30.32,20.72a33,33,0,0,1-6,6.32l-.1.07c0-.21,0-.42.05-.63.35-7.68-2.21-14.18-5.91-15.6,1.5-1.73,3.21-2.68,4.84-2.56C27,8.62,29.85,13.85,30.32,20.72Z"/><circle class="cls-6" cx="11.37" cy="9.41" r="2.45"/><circle class="cls-6" cx="22.83" cy="4.24" r="2.45"/></g></g></g></g></svg>