<svg xmlns="http://www.w3.org/2000/svg" viewBox="0 0 221.39 34.74"><defs><style>.cls-1{isolation:isolate;}.cls-2{fill:#000333;}.cls-3{mix-blend-mode:multiply;}.cls-4{fill:#fff;}.cls-5{fill:#3874b6;}.cls-6{fill:#3fa9f5;}</style></defs><g class="cls-1"><g id="Layer_2" data-name="Layer 2"><g id="レイヤー_1" data-name="レイヤー 1"><path class="cls-2" d="M51.32,24.05a10.7,10.7,0,0,0-.6-2.09l-1.29-3.74c0-.07-.44-1.38-.48-1.49-.16-.51-.16-.51-.23-.7.09.88.14,2,.14,2.78v3.06A14.13,14.13,0,0,0,49,24.05H46.2a14.72,14.72,0,0,0,.12-2.18V14.54a17.31,17.31,0,0,0-.12-2.2h3.72a10.43,10.43,0,0,0,.53,2l2.11,6.07,2.1-6.07a9.57,9.57,0,0,0,.52-2h3.73a15.54,15.54,0,0,0-.11,2.2v7.33a13.5,13.5,0,0,0,.11,2.18H56.14a16.17,16.17,0,0,0,.11-2.18V18.8c0-.34,0-1.39.07-1.83,0-.75,0-.75.06-1-.31,1.1-.45,1.61-.64,2.11L54.38,22a13.14,13.14,0,0,0-.61,2.07Z"/><path class="cls-2" d="M68.86,24.05a12.27,12.27,0,0,0-.34-1.52l-.38-1.2h-4l-.38,1.2a8.27,8.27,0,0,0-.35,1.52H60.11a15.19,15.19,0,0,0,.67-1.72l3-8.47a8.81,8.81,0,0,0,.45-1.52h3.67a11.85,11.85,0,0,0,.48,1.52l3,8.47c.27.75.5,1.32.68,1.72Zm-2.75-9.3L64.8,19h2.65Z"/><path class="cls-2" d="M84.19,12.88a11.23,11.23,0,0,0-.59,1.3,23.93,23.93,0,0,1-1.87,3.72,31.18,31.18,0,0,1,3.07,3l-1.92,2A21.14,21.14,0,0,0,80.23,20a17,17,0,0,1-5.45,4.47A7.3,7.3,0,0,0,73,22.32a14.16,14.16,0,0,0,3.81-2.45,14.65,14.65,0,0,0,1.51-1.56,29.78,29.78,0,0,0-3.66-2.51l1.73-1.7a32.87,32.87,0,0,1,3.32,2.21A15.48,15.48,0,0,0,81.55,12Z"/><path class="cls-2" d="M94,18.21a7.24,7.24,0,0,1-1,3.63,7.05,7.05,0,0,1-3.77,2.85,7,7,0,0,0-1.65-2.22c2.53-.73,3.67-2,3.8-4.26H88.46a16.38,16.38,0,0,0-2.13.07V15.91A11.65,11.65,0,0,0,88.5,16h7.83a14.13,14.13,0,0,0,2.24-.1v2.35a18.73,18.73,0,0,0-2.19-.07Zm-.31-5.8a19.94,19.94,0,0,0,2.08-.08,1.36,1.36,0,0,0-.11-.2l1.14-.37a9.31,9.31,0,0,1,1,2.26l-1.21.43a11.24,11.24,0,0,0-.82-2.08v2.31a17.2,17.2,0,0,0-2.07-.07H90a19.71,19.71,0,0,0-2.19.07V12.3a11.41,11.41,0,0,0,2.23.11Zm4.74,1.42a9.74,9.74,0,0,0-1-2.23l1.1-.38a9.51,9.51,0,0,1,1,2.18Z"/><path class="cls-2" d="M110.57,15.45a5.37,5.37,0,0,0-.49.49,16.07,16.07,0,0,1-2.6,2.3v4.33a14.22,14.22,0,0,0,.08,1.94h-2.5a12.86,12.86,0,0,0,.1-1.94V19.63a17.12,17.12,0,0,1-3.67,1.66,7,7,0,0,0-1.2-2,17.72,17.72,0,0,0,5.7-2.67,10.17,10.17,0,0,0,2.61-2.52Z"/><path class="cls-2" d="M116.75,14.38c0-.55.07-1.36.07-1.8a4.05,4.05,0,0,0,0-.7l2.64.07a9.77,9.77,0,0,0-.15,1.7c0,.38,0,.38,0,.72h3.06a2,2,0,0,0,.95-.16l1.09,1a1.76,1.76,0,0,0-.19,1,33.58,33.58,0,0,1-.59,6.29c-.41,1.31-1.09,1.76-2.65,1.76a16.55,16.55,0,0,1-1.84-.12,7,7,0,0,0-.48-2.47,8.16,8.16,0,0,0,1.83.28c.67,0,.84-.23,1-1.45a32.6,32.6,0,0,0,.26-3.92H119c-.12.92-.12.92-.21,1.4-.62,2.84-2,4.67-4.82,6.56a8.09,8.09,0,0,0-1.82-2.14,7.57,7.57,0,0,0,3.65-3.4,7.63,7.63,0,0,0,.71-2.41h-1.76a14.5,14.5,0,0,0-1.9.08l0-2.4a11,11,0,0,0,2,.11Z"/><path class="cls-2" d="M130.58,12.44c-.05.48-.05.48-.15,3.26a15.22,15.22,0,0,1-1,6,9.39,9.39,0,0,1-2,2.81,7.82,7.82,0,0,0-2-2,6.21,6.21,0,0,0,1.67-2.23c.66-1.38.89-3.13.89-6.77a9,9,0,0,0-.06-1.3Zm4-.23a11.62,11.62,0,0,0-.11,1.64l-.07,7.37a5.5,5.5,0,0,0,1.69-1.55,7.25,7.25,0,0,0,1.1-2.4A9.34,9.34,0,0,0,139,19.12a8.63,8.63,0,0,1-2.44,3.58,8.47,8.47,0,0,1-2.95,1.6,3.34,3.34,0,0,0-.69.29l-1.21-1.26a3,3,0,0,0,.16-1.18l.07-8.33v-.51a8.77,8.77,0,0,0-.06-1.1Z"/><path class="cls-2" d="M145.37,18.18a9.62,9.62,0,0,0-.83,2.12,8,8,0,0,1-1-1.61c0,.43,0,.77,0,1.4V23c0,.69,0,1.34.08,1.82h-2.23c.05-.52.08-1.11.08-1.82v-1.7c0-.62,0-1.31,0-1.67a7.33,7.33,0,0,1-.6,1.36,8.46,8.46,0,0,1-.66,1.07,10.71,10.71,0,0,0-.82-2.38,10.23,10.23,0,0,0,1.86-3.8h-.45a5.69,5.69,0,0,0-1,.07V13.89a5.84,5.84,0,0,0,1.07.07h.59V13a8.32,8.32,0,0,0-.09-1.46h2.25a11.37,11.37,0,0,0-.08,1.46V14h.6a5.44,5.44,0,0,0,.86-.07V16a6,6,0,0,0-.83-.06h-.53a7,7,0,0,0,1.7,2.27V13.37c0-.45,0-.82-.06-1.47a13.19,13.19,0,0,0,1.41.06H151c.56,0,1,0,1.36-.06,0,.48-.05.92-.05,1.45v9.58c0,.69,0,1.36.08,1.86h-2.21v-.62h-2.66v.64h-2.2c.05-.54.08-1.23.08-1.88Zm2.12-2.74h2.66v-1.5h-2.66Zm0,3.39h2.66V17.29h-2.66Zm0,3.37h2.66V20.68h-2.66Z"/><path class="cls-2" d="M158.82,15.75a5.58,5.58,0,0,0-1.11-.05h-2.94a8.58,8.58,0,0,0-1.14.06V13.85a6.89,6.89,0,0,0,1.14.07h2.91a10.07,10.07,0,0,0,1.14-.05v.05a7.9,7.9,0,0,0,.54-1.8l1.77.38a10.14,10.14,0,0,1-.94,2.7l-1.37-.51Zm8.05,3a11.66,11.66,0,0,1-1.31,2.62,8.36,8.36,0,0,0-1.45-.83,5,5,0,0,0,3,2.34A8.64,8.64,0,0,0,166,25a7.41,7.41,0,0,1-3.34-3.07A4.94,4.94,0,0,1,161.09,24a6.18,6.18,0,0,1-1.81,1,7.53,7.53,0,0,0-.7-1.62v.32a6.38,6.38,0,0,0,0,.95h-1.83v-.41H156v.59h-2c0-.48.07-.94.07-1.38V21.15a8.55,8.55,0,0,0-.06-1.06,9.17,9.17,0,0,0,1,0h2.81a4.56,4.56,0,0,0,.79,0,8.51,8.51,0,0,0,.73-2,6.51,6.51,0,0,0-.8-1.21v.82a5.81,5.81,0,0,0-.79,0h-2.78a6,6,0,0,0-.83,0V16.14a6.3,6.3,0,0,0,.83,0h2.78a5.43,5.43,0,0,0,.79,0v.69a4.19,4.19,0,0,0,2.32-1.55,4.73,4.73,0,0,0,.78-3,3.26,3.26,0,0,0-.06-.62h2.17a3.55,3.55,0,0,0-.06.76,5.78,5.78,0,0,0,.21,1.66A7.5,7.5,0,0,0,165,12l1.88.69a12.75,12.75,0,0,1-1.35,2.46,9.63,9.63,0,0,0-1.48-.77,3.55,3.55,0,0,0,.8,1.1A5.32,5.32,0,0,0,167,16.66a9.4,9.4,0,0,0-1,1.74Zm-12.78-6.86a10.19,10.19,0,0,0,1.27.05h1.88a10.19,10.19,0,0,0,1.27-.05v1.64c-.38,0-.63,0-1.27,0h-1.88c-.59,0-.9,0-1.27,0Zm0,6.29c.24,0,.41,0,.83,0h2.77a5.36,5.36,0,0,0,.8,0v1.59a7.53,7.53,0,0,0-.83,0h-2.77a7.91,7.91,0,0,0-.8,0Zm1.8,4.44h.88v-.94h-.88Zm7.79-5.19a4.78,4.78,0,0,0,0,.71,6.33,6.33,0,0,0,.32,2.09,7.66,7.66,0,0,0,1-2.11,7.86,7.86,0,0,1-1.33-1,4.18,4.18,0,0,1-1-1.36,5.29,5.29,0,0,1-2.56,2.65l.93.27a13.58,13.58,0,0,1-1.13,2.83l-1.35-.61V23A4.17,4.17,0,0,0,161,21a6.3,6.3,0,0,0,.56-3c0-.21,0-.4,0-.61Z"/><path class="cls-2" d="M175.52,14.62v-.93a9.84,9.84,0,0,0-.07-1.57H178a20.55,20.55,0,0,0-.07,2.5h.55a11.78,11.78,0,0,0,2-.1v2.41a19.18,19.18,0,0,0-2-.07h-.62c0,1.11,0,1.42-.09,1.95a6,6,0,0,1-2.09,4.25,8.38,8.38,0,0,1-2.91,1.59,6.78,6.78,0,0,0-1.53-2.15A7.4,7.4,0,0,0,174,21.26,4,4,0,0,0,175.45,18c0-.25,0-.35,0-1.15h-3v1.57a13,13,0,0,0,.06,1.45H170a9.81,9.81,0,0,0,.09-1.48V16.86h-.52a16.83,16.83,0,0,0-2,.07V14.52a11.85,11.85,0,0,0,2,.1h.48v-1A9.45,9.45,0,0,0,170,12.1h2.58a9.55,9.55,0,0,0-.06,1.44v1.08Z"/><path class="cls-2" d="M181.56,16.81a19.53,19.53,0,0,0,2.88.13h6.73a22.67,22.67,0,0,0,2.88-.13v2.72a27.56,27.56,0,0,0-2.9-.08h-6.69c-1.58,0-2,0-2.9.08Z"/><path class="cls-2" d="M206.42,16c-.34.17-.37.19-.7.34A25.33,25.33,0,0,1,199,18.5v1.58a3.15,3.15,0,0,0,.06,1.08c.08.27.26.38.67.44a13.82,13.82,0,0,0,1.49.08c.8,0,1.9-.05,2.75-.14a12.15,12.15,0,0,0,2.42-.45l.09,2.6c-.33,0-.74,0-1.44.1-1.41.13-3,.21-4.11.21-1.93,0-2.9-.17-3.55-.62a2.08,2.08,0,0,1-.79-1.51,12.24,12.24,0,0,1-.05-1.5V14.25a13.48,13.48,0,0,0-.09-1.87h2.63a11.39,11.39,0,0,0-.08,1.89v1.9a19.92,19.92,0,0,0,5.36-2,8.34,8.34,0,0,0-1-1.71l1.4-.45A9.67,9.67,0,0,1,206,14.16l-.7.25Zm.37-4.61a10,10,0,0,1,1.16,2.1l-1.33.49a10.82,10.82,0,0,0-1.16-2.15Z"/><path class="cls-2" d="M219.42,24.43a22.18,22.18,0,0,0-4-4,15.25,15.25,0,0,1-5.18,3.86,7.29,7.29,0,0,0-1.57-2.23,13.27,13.27,0,0,0,4.56-2.84A11.34,11.34,0,0,0,216,15.08l-3.66.06a18,18,0,0,0-2.24.14l-.07-2.5a10.52,10.52,0,0,0,1.48.1l.79,0,4.81-.07a2.52,2.52,0,0,0,1.12-.15l1.24,1.26a2.33,2.33,0,0,0-.51.83,16.56,16.56,0,0,1-2.06,3.8,33,33,0,0,1,4.47,3.81Z"/><g class="cls-3"><path class="cls-4" d="M32.89,5.88C31.09,4,27.73,3.17,23.8,3.67a3.73,3.73,0,1,0-6.27,2.77,9,9,0,0,0-2.29,1.79,5.87,5.87,0,0,0-1.51,0,3.73,3.73,0,0,0-7.45.09,3.56,3.56,0,0,0,2.37,3.43c-.27.19-.18.14-.55.43s-.52.41-.81.66l-.65.64c-4.55,5-8.72,12.62-5.5,17.65a7.85,7.85,0,0,0,5.67,3.52,11.43,11.43,0,0,0,1.77.13c5.47,0,12-3.39,16.37-7.08,5.84-4.9,9.49-10.87,9.78-15.95A7.57,7.57,0,0,0,32.89,5.88Zm-26.71,21c-.89-1.09-.75-3.13.27-5.52A43.12,43.12,0,0,0,7,27.58,2.77,2.77,0,0,1,6.18,26.91ZM24.26,7.55c2.16-.23,3.92.13,4.74,1,1.06,1.12.59,3.88-1.09,7A14.41,14.41,0,0,0,24.26,7.55ZM19.77,23.22a3.91,3.91,0,0,1,0,.49l-.07.84-.78.52a22.6,22.6,0,0,1-2.77,1.56l0-.1h0c-1.84-6.07-1.11-11.74.43-14.91C18.44,13.27,20,17.61,19.77,23.22Z"/><path class="cls-5" d="M23.94,26.46c-7.2,6-17.8,9.53-21.48,3.79C0,26.46,2.87,19.91,7.8,14.49A15.23,15.23,0,0,0,7,17.16C4.12,21.39,3.11,25.63,5,27.9a4.89,4.89,0,0,0,2.39,1.55c2.3.73,5.51.34,8.93-1.18a24.62,24.62,0,0,0,3.46-1.88,28.35,28.35,0,0,0,2.48-1.81A30.69,30.69,0,0,0,28,18.32C31,14,32.13,9.56,30.14,7.46c-1.34-1.41-4-1.88-7.12-1.32a3.56,3.56,0,0,0,.41-.83c3.74-.6,6.83.07,8.33,1.64C35,10.33,32.93,18.91,23.94,26.46Z"/><path class="cls-6" d="M14.59,27c.06.23.13.45.2.66a14,14,0,0,1-6.1,1c0-.17,0-.29,0-.45-1-5.94-.92-11.14.86-14.6.91-1.78,2.67-3.53,4.16-3.78l.16,0a4.4,4.4,0,0,1,1.83.18C13.41,13.5,12.54,20.2,14.59,27Z"/><path class="cls-6" d="M26.66,18.22a28.91,28.91,0,0,1-5.27,5.55l-.09.07c0-.18,0-.37,0-.56.31-6.74-1.94-12.46-5.19-13.72C17.47,8.05,19,7.21,20.41,7.32,23.76,7.58,26.25,12.18,26.66,18.22Z"/><circle class="cls-6" cx="10" cy="8.28" r="2.16"/><circle class="cls-6" cx="20.08" cy="3.72" r="2.16"/></g></g></g></g></svg>