<svg xmlns="http://www.w3.org/2000/svg" viewBox="0 0 28.16 28.13"><defs><style>.cls-1{fill:#fff;}</style></defs><g id="Layer_2" data-name="Layer 2"><g id="contents"><path class="cls-1" d="M14.09,0A14.07,14.07,0,1,1,0,14.14,14.08,14.08,0,0,1,14.09,0Zm0,25.46A11.4,11.4,0,1,0,2.69,14.55,11.38,11.38,0,0,0,14.06,25.46Z"/><path class="cls-1" d="M16.6,12.6c-.34-.36-.61-.67-.91-1L12.75,8.85a.68.68,0,0,1,0-1.12c.32-.33.64-.65,1-1a.67.67,0,0,1,1.05,0l6.75,6.75c.4.4.4.7,0,1.11l-6.72,6.72a.67.67,0,0,1-1,0c-.36-.32-.69-.66-1-1a.67.67,0,0,1,0-1.07l3.63-3.47a1.58,1.58,0,0,1,.29-.22l0-.1-.37,0H7.78c-.79,0-1-.16-1-1V13.41a.72.72,0,0,1,.79-.81h9Z"/></g></g></svg>